<?xml version="1.0" encoding="utf-8"?>
<!-- Generator: Adobe Illustrator 16.0.0, SVG Export Plug-In . SVG Version: 6.00 Build 0)  -->
<!DOCTYPE svg PUBLIC "-//W3C//DTD SVG 1.1//EN" "http://www.w3.org/Graphics/SVG/1.1/DTD/svg11.dtd">
<svg version="1.1" id="Layer_1" xmlns="http://www.w3.org/2000/svg" xmlns:xlink="http://www.w3.org/1999/xlink" x="0px" y="0px"
	 width="97.1px" height="97.1px" viewBox="0 0 97.1 97.1" enable-background="new 0 0 97.1 97.1" xml:space="preserve">
<g>
	<defs>
		<rect id="SVGID_1_" width="97.104" height="97.551"/>
	</defs>
	<clipPath id="SVGID_2_">
		<use xlink:href="#SVGID_1_"  overflow="visible"/>
	</clipPath>
	<path clip-path="url(#SVGID_2_)" fill="none" stroke="#021933" stroke-width="1.8656" d="M48.507,1.954
		c25.761,0,46.642,20.882,46.642,46.642c0,25.76-20.881,46.641-46.642,46.641c-25.76,0-46.642-20.881-46.642-46.641
		C1.865,22.835,22.747,1.954,48.507,1.954L48.507,1.954z M48.507,1.954"/>
</g>
<path fill="none" stroke="#021933" stroke-width="1.8637" d="M37.121,16.728c17.446-6.473,36.651,2.462,42.897,19.958
	c6.248,17.496-2.832,36.93-20.277,43.402c-17.446,6.473-36.652-2.463-42.897-19.959C10.596,42.633,19.675,23.203,37.121,16.728
	L37.121,16.728z M37.121,16.728"/>
<path fill-rule="evenodd" clip-rule="evenodd" fill="#021933" d="M41.583,36.516h0.161v-0.121h3.998V35.93h0.19v-0.933h-0.19v-0.465
	h-0.62V33.84h0.257v-0.584h-0.257v-0.692h0.746c0.067-0.934,0.785-1.735,1.799-2.124v-0.559h0.329v-0.423h0.243v-0.263h0.331
	c0-0.015-0.002-0.029-0.002-0.044c0-0.272,0.219-0.494,0.487-0.494c0.269,0,0.485,0.222,0.485,0.494c0,0.015,0,0.029-0.001,0.044
	h0.332v0.263h0.243v0.423h0.328v0.559c1.014,0.389,1.73,1.19,1.799,2.124h0.748v0.692H52.73v0.584h0.258v0.692h-0.621v0.465h-0.189
	v0.933h0.189v0.465h3.998v0.121h0.16v0.392h-0.16v1.119h-0.344v0.387h-0.418v0.467h0.252v0.701h0.262v0.385h12.73v1.708H68.23
	v19.567H29.786V41.675h-0.617v-1.708h12.823v-0.385h0.261v-0.701h0.251v-0.467h-0.42v-0.387h-0.341v-1.119h-0.161V36.516z
	 M47.364,53.354c1.084-0.85,2.168-0.85,3.255,0v1.455h-3.255V53.354z M49.816,55.686c0.606-0.742,1.19-0.654,1.756,0v3.537h-1.756
	V55.686z M46.644,55.686c0.605-0.742,1.19-0.654,1.759,0v3.537h-1.759V55.686z M42.502,59.674h3.551v1.127h-3.551V59.674z
	 M52.182,59.674h3.551v1.127h-3.551V59.674z M56.086,59.674h11.275v1.127H56.086V59.674z M30.874,59.674h11.275v1.127H30.874V59.674
	z M55.998,55.73h11.318v3.123h-1.641v-2.262h-1.377v2.262h-1.908v-2.262h-1.377v2.262h-1.908v-2.262h-1.377v2.262h-1.73V55.73z
	 M30.874,55.73h11.319v3.123H40.55v-2.262h-1.376v2.262h-1.909v-2.262h-1.376v2.262h-1.907v-2.262h-1.378v2.262h-1.73V55.73z
	 M55.998,52.789h11.318v2.627h-1.641v-1.902h-1.377v1.902h-1.908v-1.902h-1.377v1.902h-1.908v-1.902h-1.377v1.902h-1.73V52.789z
	 M30.874,52.789h11.319v2.627H40.55v-1.902h-1.376v1.902h-1.909v-1.902h-1.376v1.902h-1.907v-1.902h-1.378v1.902h-1.73V52.789z
	 M52.182,51.838h3.508v7.107h-1.066v-2.082h-1.377v2.082h-1.064V51.838z M42.548,51.838h3.506v7.107H44.99v-2.082h-1.376v2.082
	h-1.066V51.838z M48.348,47.022h1.261v2.273h-1.261V47.022z M48.348,44.376h1.261v2.301h-1.261V44.376z M50.182,44.418
	c0.305-0.998,1.615-0.951,1.879,0v4.863h-1.879V44.418z M45.939,44.418c0.303-0.998,1.615-0.951,1.878,0v4.863h-1.878V44.418z
	 M46.656,51.658h4.706v0.59h-4.706V51.658z M66.311,41.929h0.338c0.078,0,0.143,0.062,0.143,0.141v0.802
	c0,0.078-0.064,0.143-0.143,0.143h-0.338c-0.08,0-0.143-0.064-0.143-0.143V42.07C66.168,41.991,66.23,41.929,66.311,41.929
	L66.311,41.929z M41.851,41.929h0.337c0.079,0,0.142,0.062,0.142,0.141v0.802c0,0.078-0.063,0.143-0.142,0.143h-0.337
	c-0.079,0-0.143-0.064-0.143-0.143V42.07C41.708,41.991,41.772,41.929,41.851,41.929L41.851,41.929z M65.377,41.929h0.338
	c0.078,0,0.143,0.062,0.143,0.141v0.802c0,0.078-0.064,0.143-0.143,0.143h-0.338c-0.078,0-0.143-0.064-0.143-0.143V42.07
	C65.234,41.991,65.299,41.929,65.377,41.929L65.377,41.929z M40.918,41.929h0.338c0.079,0,0.142,0.062,0.142,0.141v0.802
	c0,0.078-0.063,0.143-0.142,0.143h-0.338c-0.079,0-0.143-0.064-0.143-0.143V42.07C40.776,41.991,40.84,41.929,40.918,41.929
	L40.918,41.929z M64.445,41.929h0.338c0.078,0,0.141,0.062,0.141,0.141v0.802c0,0.078-0.062,0.143-0.141,0.143h-0.338
	c-0.078,0-0.143-0.064-0.143-0.143V42.07C64.303,41.991,64.367,41.929,64.445,41.929L64.445,41.929z M39.986,41.929h0.338
	c0.079,0,0.142,0.062,0.142,0.141v0.802c0,0.078-0.063,0.143-0.142,0.143h-0.338c-0.079,0-0.143-0.064-0.143-0.143V42.07
	C39.843,41.991,39.907,41.929,39.986,41.929L39.986,41.929z M63.512,41.929h0.338c0.078,0,0.143,0.062,0.143,0.141v0.802
	c0,0.078-0.064,0.143-0.143,0.143h-0.338c-0.078,0-0.143-0.064-0.143-0.143V42.07C63.369,41.991,63.434,41.929,63.512,41.929
	L63.512,41.929z M39.053,41.929h0.337c0.079,0,0.143,0.062,0.143,0.141v0.802c0,0.078-0.064,0.143-0.143,0.143h-0.337
	c-0.078,0-0.143-0.064-0.143-0.143V42.07C38.911,41.991,38.975,41.929,39.053,41.929L39.053,41.929z M62.58,41.929h0.338
	c0.078,0,0.141,0.062,0.141,0.141v0.802c0,0.078-0.062,0.143-0.141,0.143H62.58c-0.078,0-0.143-0.064-0.143-0.143V42.07
	C62.438,41.991,62.502,41.929,62.58,41.929L62.58,41.929z M38.121,41.929h0.337c0.079,0,0.143,0.062,0.143,0.141v0.802
	c0,0.078-0.064,0.143-0.143,0.143h-0.337c-0.079,0-0.142-0.064-0.142-0.143V42.07C37.979,41.991,38.042,41.929,38.121,41.929
	L38.121,41.929z M61.646,41.929h0.338c0.078,0,0.143,0.062,0.143,0.141v0.802c0,0.078-0.064,0.143-0.143,0.143h-0.338
	c-0.078,0-0.143-0.064-0.143-0.143V42.07C61.504,41.991,61.568,41.929,61.646,41.929L61.646,41.929z M37.188,41.929h0.337
	c0.079,0,0.143,0.062,0.143,0.141v0.802c0,0.078-0.064,0.143-0.143,0.143h-0.337c-0.079,0-0.143-0.064-0.143-0.143V42.07
	C37.046,41.991,37.11,41.929,37.188,41.929L37.188,41.929z M60.715,41.929h0.338c0.078,0,0.143,0.062,0.143,0.141v0.802
	c0,0.078-0.064,0.143-0.143,0.143h-0.338c-0.078,0-0.143-0.064-0.143-0.143V42.07C60.572,41.991,60.637,41.929,60.715,41.929
	L60.715,41.929z M36.256,41.929h0.337c0.079,0,0.142,0.062,0.142,0.141v0.802c0,0.078-0.063,0.143-0.142,0.143h-0.337
	c-0.079,0-0.143-0.064-0.143-0.143V42.07C36.113,41.991,36.177,41.929,36.256,41.929L36.256,41.929z M59.781,41.929h0.338
	c0.078,0,0.143,0.062,0.143,0.141v0.802c0,0.078-0.064,0.143-0.143,0.143h-0.338c-0.078,0-0.143-0.064-0.143-0.143V42.07
	C59.639,41.991,59.703,41.929,59.781,41.929L59.781,41.929z M35.323,41.929h0.338c0.078,0,0.143,0.062,0.143,0.141v0.802
	c0,0.078-0.064,0.143-0.143,0.143h-0.338c-0.078,0-0.142-0.064-0.142-0.143V42.07C35.181,41.991,35.245,41.929,35.323,41.929
	L35.323,41.929z M58.85,41.929h0.338c0.078,0,0.143,0.062,0.143,0.141v0.802c0,0.078-0.064,0.143-0.143,0.143H58.85
	c-0.078,0-0.143-0.064-0.143-0.143V42.07C58.707,41.991,58.771,41.929,58.85,41.929L58.85,41.929z M34.39,41.929h0.338
	c0.079,0,0.143,0.062,0.143,0.141v0.802c0,0.078-0.064,0.143-0.143,0.143H34.39c-0.079,0-0.142-0.064-0.142-0.143V42.07
	C34.248,41.991,34.312,41.929,34.39,41.929L34.39,41.929z M57.916,41.929h0.338c0.078,0,0.143,0.062,0.143,0.141v0.802
	c0,0.078-0.064,0.143-0.143,0.143h-0.338c-0.078,0-0.143-0.064-0.143-0.143V42.07C57.773,41.991,57.838,41.929,57.916,41.929
	L57.916,41.929z M33.458,41.929h0.338c0.079,0,0.143,0.062,0.143,0.141v0.802c0,0.078-0.064,0.143-0.143,0.143h-0.338
	c-0.079,0-0.142-0.064-0.142-0.143V42.07C33.315,41.991,33.379,41.929,33.458,41.929L33.458,41.929z M56.984,41.929h0.338
	c0.078,0,0.143,0.062,0.143,0.141v0.802c0,0.078-0.064,0.143-0.143,0.143h-0.338c-0.078,0-0.143-0.064-0.143-0.143V42.07
	C56.842,41.991,56.906,41.929,56.984,41.929L56.984,41.929z M32.525,41.929h0.337c0.079,0,0.143,0.062,0.143,0.141v0.802
	c0,0.078-0.064,0.143-0.143,0.143h-0.337c-0.079,0-0.143-0.064-0.143-0.143V42.07C32.382,41.991,32.447,41.929,32.525,41.929
	L32.525,41.929z M56.051,41.929h0.338c0.078,0,0.143,0.062,0.143,0.141v0.802c0,0.078-0.064,0.143-0.143,0.143h-0.338
	c-0.078,0-0.141-0.064-0.141-0.143V42.07C55.91,41.991,55.973,41.929,56.051,41.929L56.051,41.929z M31.592,41.929h0.338
	c0.079,0,0.143,0.062,0.143,0.141v0.802c0,0.078-0.063,0.143-0.143,0.143h-0.338c-0.078,0-0.142-0.064-0.142-0.143V42.07
	C31.45,41.991,31.514,41.929,31.592,41.929L31.592,41.929z M63.428,48.145h1.477v2.402h-1.477V48.145z M38.446,48.145h1.476v2.402
	h-1.476V48.145z M63.428,45.179h1.477v2.402h-1.477V45.179z M52.623,47.438h1.479v2.402h-1.479V47.438z M43.986,47.438h1.479v2.402
	h-1.479V47.438z M52.623,44.756h1.479v2.399h-1.479V44.756z M43.986,44.756h1.479v2.399h-1.479V44.756z M38.446,45.179h1.476v2.402
	h-1.476V45.179z M60.75,48.145h1.477v2.402H60.75V48.145z M35.767,48.145h1.478v2.402h-1.478V48.145z M60.75,45.179h1.477v2.402
	H60.75V45.179z M35.767,45.179h1.478v2.402h-1.478V45.179z M58.072,48.145h1.477v2.402h-1.477V48.145z M33.089,48.145h1.476v2.402
	h-1.476V48.145z M58.072,45.179h1.477v2.402h-1.477V45.179z M33.089,45.179h1.476v2.402h-1.476V45.179z M65.691,43.343h1.57v8.803
	h-1.57V43.343z M40.661,43.343h1.572v8.803h-1.572V43.343z M55.947,43.343h1.57v8.803h-1.57V43.343z M30.917,43.343h1.571v8.803
	h-1.571V43.343z M55,49.652c0.346,0,0.625,0.358,0.625,0.799c0,0.443-0.279,0.801-0.625,0.801c-0.344,0-0.623-0.357-0.623-0.801
	C54.377,50.01,54.656,49.652,55,49.652L55,49.652z M55,40.471c0.346,0,0.625,0.357,0.625,0.801c0,0.441-0.279,0.799-0.625,0.799
	c-0.344,0-0.623-0.358-0.623-0.799C54.377,40.828,54.656,40.471,55,40.471L55,40.471z M51.721,49.558
	c0.346,0,0.625,0.359,0.625,0.802c0,0.439-0.279,0.799-0.625,0.799c-0.344,0-0.621-0.359-0.621-0.799
	C51.1,49.917,51.377,49.558,51.721,49.558L51.721,49.558z M51.721,41.836c0.346,0,0.625,0.359,0.625,0.801
	c0,0.441-0.279,0.799-0.625,0.799c-0.344,0-0.621-0.358-0.621-0.799C51.1,42.195,51.377,41.836,51.721,41.836L51.721,41.836z
	 M47.981,49.558c0.344,0,0.622,0.359,0.622,0.802c0,0.439-0.278,0.799-0.622,0.799c-0.345,0-0.624-0.359-0.624-0.799
	C47.357,49.917,47.636,49.558,47.981,49.558L47.981,49.558z M47.981,41.836c0.344,0,0.622,0.359,0.622,0.801
	c0,0.441-0.278,0.799-0.622,0.799c-0.345,0-0.624-0.358-0.624-0.799C47.357,42.195,47.636,41.836,47.981,41.836L47.981,41.836z
	 M50.059,49.558c0.344,0,0.623,0.359,0.623,0.802c0,0.439-0.279,0.799-0.623,0.799c-0.344,0-0.624-0.359-0.624-0.799
	C49.435,49.917,49.714,49.558,50.059,49.558L50.059,49.558z M50.059,41.836c0.344,0,0.623,0.359,0.623,0.801
	c0,0.441-0.279,0.799-0.623,0.799c-0.344,0-0.624-0.358-0.624-0.799C49.435,42.195,49.714,41.836,50.059,41.836L50.059,41.836z
	 M46.319,49.558c0.345,0,0.622,0.359,0.622,0.802c0,0.439-0.277,0.799-0.622,0.799c-0.346,0-0.624-0.359-0.624-0.799
	C45.695,49.917,45.973,49.558,46.319,49.558L46.319,49.558z M46.319,41.836c0.345,0,0.622,0.359,0.622,0.801
	c0,0.441-0.277,0.799-0.622,0.799c-0.346,0-0.624-0.358-0.624-0.799C45.695,42.195,45.973,41.836,46.319,41.836L46.319,41.836z
	 M43.271,49.652c0.345,0,0.622,0.358,0.622,0.799c0,0.443-0.277,0.801-0.622,0.801c-0.345,0-0.625-0.357-0.625-0.801
	C42.646,50.01,42.926,49.652,43.271,49.652L43.271,49.652z M63.127,50.639c0.346,0,0.625,0.361,0.625,0.801
	c0,0.443-0.279,0.803-0.625,0.803c-0.344,0-0.623-0.359-0.623-0.803C62.504,51,62.783,50.639,63.127,50.639L63.127,50.639z
	 M38.006,50.639c0.345,0,0.625,0.361,0.625,0.801c0,0.443-0.28,0.803-0.625,0.803c-0.343,0-0.622-0.359-0.622-0.803
	C37.384,51,37.663,50.639,38.006,50.639L38.006,50.639z M63.127,43.343c0.346,0,0.625,0.358,0.625,0.799
	c0,0.442-0.279,0.801-0.625,0.801c-0.344,0-0.623-0.359-0.623-0.801C62.504,43.701,62.783,43.343,63.127,43.343L63.127,43.343z
	 M38.006,43.343c0.345,0,0.625,0.358,0.625,0.799c0,0.442-0.28,0.801-0.625,0.801c-0.343,0-0.622-0.359-0.622-0.801
	C37.384,43.701,37.663,43.343,38.006,43.343L38.006,43.343z M60.125,50.639c0.346,0,0.625,0.361,0.625,0.801
	c0,0.443-0.279,0.803-0.625,0.803c-0.344,0-0.623-0.359-0.623-0.803C59.502,51,59.781,50.639,60.125,50.639L60.125,50.639z
	 M35.005,50.639c0.343,0,0.623,0.361,0.623,0.801c0,0.443-0.279,0.803-0.623,0.803c-0.345,0-0.624-0.359-0.624-0.803
	C34.381,51,34.661,50.639,35.005,50.639L35.005,50.639z M60.125,43.343c0.346,0,0.625,0.358,0.625,0.799
	c0,0.442-0.279,0.801-0.625,0.801c-0.344,0-0.623-0.359-0.623-0.801C59.502,43.701,59.781,43.343,60.125,43.343L60.125,43.343z
	 M35.005,43.343c0.343,0,0.623,0.358,0.623,0.799c0,0.442-0.279,0.801-0.623,0.801c-0.345,0-0.624-0.359-0.624-0.801
	C34.381,43.701,34.661,43.343,35.005,43.343L35.005,43.343z M43.271,40.471c0.345,0,0.622,0.357,0.622,0.801
	c0,0.441-0.277,0.799-0.622,0.799c-0.345,0-0.625-0.358-0.625-0.799C42.646,40.828,42.926,40.471,43.271,40.471L43.271,40.471z
	 M46.819,35.731h4.47v2.259h-4.47V35.731z M49.248,30.853h0.762v1.736h-0.762V30.853z M48.132,30.853h0.763v1.736h-0.763V30.853z
	 M50.373,30.841v1.756h1.35C51.678,31.574,51.117,31.079,50.373,30.841L50.373,30.841z M47.693,30.841v1.756h-1.351
	C46.388,31.574,46.948,31.079,47.693,30.841L47.693,30.841z M47.693,30.841"/>
<path fill="none" stroke="#021933" stroke-width="0.423" d="M41.583,36.516h0.161v-0.121h3.998V35.93h0.19v-0.933h-0.19v-0.465
	h-0.62V33.84h0.257v-0.584h-0.257v-0.691h0.746c0.067-0.935,0.785-1.735,1.799-2.124v-0.559h0.329v-0.423h0.243v-0.263h0.331
	c0-0.015-0.002-0.029-0.002-0.044c0-0.272,0.219-0.495,0.487-0.495c0.269,0,0.485,0.223,0.485,0.495c0,0.015,0,0.029-0.001,0.044
	h0.332v0.263h0.243v0.423h0.328v0.559c1.014,0.389,1.73,1.189,1.799,2.124h0.748v0.691H52.73v0.584h0.258v0.692h-0.621v0.465h-0.189
	v0.933h0.189v0.465h3.998v0.121h0.16v0.392h-0.16v1.119h-0.344v0.387h-0.418v0.467h0.252v0.701h0.262v0.385h12.73v1.708H68.23
	v19.567H29.786V41.675h-0.617v-1.708h12.823v-0.385h0.261v-0.701h0.251v-0.467h-0.42v-0.387h-0.341v-1.119h-0.161V36.516z"/>
<path fill="none" stroke="#021933" stroke-width="0.423" d="M47.364,53.354c1.084-0.85,2.168-0.85,3.255,0v1.457h-3.255V53.354z"/>
<path fill="none" stroke="#021933" stroke-width="0.423" d="M49.816,55.686c0.606-0.74,1.19-0.654,1.756,0v3.537h-1.756V55.686z"/>
<path fill="none" stroke="#021933" stroke-width="0.423" d="M46.644,55.686c0.605-0.74,1.19-0.654,1.759,0v3.537h-1.759V55.686z"/>
<rect x="42.502" y="59.674" fill="none" stroke="#021933" stroke-width="0.423" width="3.551" height="1.127"/>
<rect x="52.182" y="59.674" fill="none" stroke="#021933" stroke-width="0.423" width="3.551" height="1.127"/>
<rect x="56.086" y="59.674" fill="none" stroke="#021933" stroke-width="0.423" width="11.275" height="1.127"/>
<rect x="30.874" y="59.674" fill="none" stroke="#021933" stroke-width="0.423" width="11.275" height="1.127"/>
<polygon fill="none" stroke="#021933" stroke-width="0.423" points="55.998,55.73 67.316,55.73 67.316,58.854 65.676,58.854 
	65.676,56.592 64.299,56.592 64.299,58.854 62.391,58.854 62.391,56.592 61.014,56.592 61.014,58.854 59.105,58.854 59.105,56.592 
	57.729,56.592 57.729,58.854 55.998,58.854 "/>
<polygon fill="none" stroke="#021933" stroke-width="0.423" points="30.874,55.73 42.192,55.73 42.192,58.854 40.55,58.854 
	40.55,56.592 39.174,56.592 39.174,58.854 37.265,58.854 37.265,56.592 35.889,56.592 35.889,58.854 33.981,58.854 33.981,56.592 
	32.604,56.592 32.604,58.854 30.874,58.854 "/>
<polygon fill="none" stroke="#021933" stroke-width="0.423" points="55.998,52.789 67.316,52.789 67.316,55.416 65.676,55.416 
	65.676,53.514 64.299,53.514 64.299,55.416 62.391,55.416 62.391,53.514 61.014,53.514 61.014,55.416 59.105,55.416 59.105,53.514 
	57.729,53.514 57.729,55.416 55.998,55.416 "/>
<polygon fill="none" stroke="#021933" stroke-width="0.423" points="30.874,52.789 42.192,52.789 42.192,55.416 40.55,55.416 
	40.55,53.514 39.174,53.514 39.174,55.416 37.265,55.416 37.265,53.514 35.889,53.514 35.889,55.416 33.981,55.416 33.981,53.514 
	32.604,53.514 32.604,55.416 30.874,55.416 "/>
<polygon fill="none" stroke="#021933" stroke-width="0.423" points="52.182,51.838 55.689,51.838 55.689,58.945 54.623,58.945 
	54.623,56.863 53.246,56.863 53.246,58.945 52.182,58.945 "/>
<polygon fill="none" stroke="#021933" stroke-width="0.423" points="42.548,51.838 46.054,51.838 46.054,58.945 44.99,58.945 
	44.99,56.863 43.614,56.863 43.614,58.945 42.548,58.945 "/>
<rect x="48.348" y="47.022" fill="none" stroke="#021933" stroke-width="0.423" width="1.261" height="2.273"/>
<rect x="48.348" y="44.376" fill="none" stroke="#021933" stroke-width="0.423" width="1.261" height="2.301"/>
<path fill="none" stroke="#021933" stroke-width="0.423" d="M50.182,44.418c0.305-0.999,1.615-0.951,1.879,0v4.864h-1.879V44.418z"
	/>
<path fill="none" stroke="#021933" stroke-width="0.423" d="M45.939,44.418c0.303-0.999,1.615-0.951,1.878,0v4.864h-1.878V44.418z"
	/>
<rect x="46.656" y="51.658" fill="none" stroke="#021933" stroke-width="0.423" width="4.706" height="0.59"/>
<path fill="none" stroke="#021933" stroke-width="0.423" d="M66.311,41.929h0.338c0.078,0,0.143,0.062,0.143,0.14v0.804
	c0,0.078-0.064,0.142-0.143,0.142h-0.338c-0.08,0-0.143-0.064-0.143-0.142v-0.804C66.168,41.991,66.23,41.929,66.311,41.929
	L66.311,41.929z"/>
<path fill="none" stroke="#021933" stroke-width="0.423" d="M41.851,41.929h0.337c0.079,0,0.142,0.062,0.142,0.14v0.804
	c0,0.078-0.063,0.142-0.142,0.142h-0.337c-0.079,0-0.143-0.064-0.143-0.142v-0.804C41.708,41.991,41.772,41.929,41.851,41.929
	L41.851,41.929z"/>
<path fill="none" stroke="#021933" stroke-width="0.423" d="M65.377,41.929h0.338c0.078,0,0.143,0.062,0.143,0.14v0.804
	c0,0.078-0.064,0.142-0.143,0.142h-0.338c-0.078,0-0.143-0.064-0.143-0.142v-0.804C65.234,41.991,65.299,41.929,65.377,41.929
	L65.377,41.929z"/>
<path fill="none" stroke="#021933" stroke-width="0.423" d="M40.918,41.929h0.338c0.079,0,0.142,0.062,0.142,0.14v0.804
	c0,0.078-0.063,0.142-0.142,0.142h-0.338c-0.079,0-0.143-0.064-0.143-0.142v-0.804C40.776,41.991,40.84,41.929,40.918,41.929
	L40.918,41.929z"/>
<path fill="none" stroke="#021933" stroke-width="0.423" d="M64.445,41.929h0.338c0.078,0,0.141,0.062,0.141,0.14v0.804
	c0,0.078-0.062,0.142-0.141,0.142h-0.338c-0.078,0-0.143-0.064-0.143-0.142v-0.804C64.303,41.991,64.367,41.929,64.445,41.929
	L64.445,41.929z"/>
<path fill="none" stroke="#021933" stroke-width="0.423" d="M39.986,41.929h0.338c0.079,0,0.142,0.062,0.142,0.14v0.804
	c0,0.078-0.063,0.142-0.142,0.142h-0.338c-0.079,0-0.143-0.064-0.143-0.142v-0.804C39.843,41.991,39.907,41.929,39.986,41.929
	L39.986,41.929z"/>
<path fill="none" stroke="#021933" stroke-width="0.423" d="M63.512,41.929h0.338c0.078,0,0.143,0.062,0.143,0.14v0.804
	c0,0.078-0.064,0.142-0.143,0.142h-0.338c-0.078,0-0.143-0.064-0.143-0.142v-0.804C63.369,41.991,63.434,41.929,63.512,41.929
	L63.512,41.929z"/>
<path fill="none" stroke="#021933" stroke-width="0.423" d="M39.053,41.929h0.337c0.079,0,0.143,0.062,0.143,0.14v0.804
	c0,0.078-0.064,0.142-0.143,0.142h-0.337c-0.078,0-0.143-0.064-0.143-0.142v-0.804C38.911,41.991,38.975,41.929,39.053,41.929
	L39.053,41.929z"/>
<path fill="none" stroke="#021933" stroke-width="0.423" d="M62.58,41.929h0.338c0.078,0,0.141,0.062,0.141,0.14v0.804
	c0,0.078-0.062,0.142-0.141,0.142H62.58c-0.078,0-0.143-0.064-0.143-0.142v-0.804C62.438,41.991,62.502,41.929,62.58,41.929
	L62.58,41.929z"/>
<path fill="none" stroke="#021933" stroke-width="0.423" d="M38.121,41.929h0.337c0.079,0,0.143,0.062,0.143,0.14v0.804
	c0,0.078-0.064,0.142-0.143,0.142h-0.337c-0.079,0-0.142-0.064-0.142-0.142v-0.804C37.979,41.991,38.042,41.929,38.121,41.929
	L38.121,41.929z"/>
<path fill="none" stroke="#021933" stroke-width="0.423" d="M61.646,41.929h0.338c0.078,0,0.143,0.062,0.143,0.14v0.804
	c0,0.078-0.064,0.142-0.143,0.142h-0.338c-0.078,0-0.143-0.064-0.143-0.142v-0.804C61.504,41.991,61.568,41.929,61.646,41.929
	L61.646,41.929z"/>
<path fill="none" stroke="#021933" stroke-width="0.423" d="M37.188,41.929h0.337c0.079,0,0.143,0.062,0.143,0.14v0.804
	c0,0.078-0.064,0.142-0.143,0.142h-0.337c-0.079,0-0.143-0.064-0.143-0.142v-0.804C37.046,41.991,37.11,41.929,37.188,41.929
	L37.188,41.929z"/>
<path fill="none" stroke="#021933" stroke-width="0.423" d="M60.715,41.929h0.338c0.078,0,0.143,0.062,0.143,0.14v0.804
	c0,0.078-0.064,0.142-0.143,0.142h-0.338c-0.078,0-0.143-0.064-0.143-0.142v-0.804C60.572,41.991,60.637,41.929,60.715,41.929
	L60.715,41.929z"/>
<path fill="none" stroke="#021933" stroke-width="0.423" d="M36.256,41.929h0.337c0.079,0,0.142,0.062,0.142,0.14v0.804
	c0,0.078-0.063,0.142-0.142,0.142h-0.337c-0.079,0-0.143-0.064-0.143-0.142v-0.804C36.113,41.991,36.177,41.929,36.256,41.929
	L36.256,41.929z"/>
<path fill="none" stroke="#021933" stroke-width="0.423" d="M59.781,41.929h0.338c0.078,0,0.143,0.062,0.143,0.14v0.804
	c0,0.078-0.064,0.142-0.143,0.142h-0.338c-0.078,0-0.143-0.064-0.143-0.142v-0.804C59.639,41.991,59.703,41.929,59.781,41.929
	L59.781,41.929z"/>
<path fill="none" stroke="#021933" stroke-width="0.423" d="M35.323,41.929h0.338c0.078,0,0.143,0.062,0.143,0.14v0.804
	c0,0.078-0.064,0.142-0.143,0.142h-0.338c-0.078,0-0.142-0.064-0.142-0.142v-0.804C35.181,41.991,35.245,41.929,35.323,41.929
	L35.323,41.929z"/>
<path fill="none" stroke="#021933" stroke-width="0.423" d="M58.85,41.929h0.338c0.078,0,0.143,0.062,0.143,0.14v0.804
	c0,0.078-0.064,0.142-0.143,0.142H58.85c-0.078,0-0.143-0.064-0.143-0.142v-0.804C58.707,41.991,58.771,41.929,58.85,41.929
	L58.85,41.929z"/>
<path fill="none" stroke="#021933" stroke-width="0.423" d="M34.39,41.929h0.338c0.079,0,0.143,0.062,0.143,0.14v0.804
	c0,0.078-0.064,0.142-0.143,0.142H34.39c-0.079,0-0.142-0.064-0.142-0.142v-0.804C34.248,41.991,34.312,41.929,34.39,41.929
	L34.39,41.929z"/>
<path fill="none" stroke="#021933" stroke-width="0.423" d="M57.916,41.929h0.338c0.078,0,0.143,0.062,0.143,0.14v0.804
	c0,0.078-0.064,0.142-0.143,0.142h-0.338c-0.078,0-0.143-0.064-0.143-0.142v-0.804C57.773,41.991,57.838,41.929,57.916,41.929
	L57.916,41.929z"/>
<path fill="none" stroke="#021933" stroke-width="0.423" d="M33.458,41.929h0.338c0.079,0,0.143,0.062,0.143,0.14v0.804
	c0,0.078-0.064,0.142-0.143,0.142h-0.338c-0.079,0-0.142-0.064-0.142-0.142v-0.804C33.315,41.991,33.379,41.929,33.458,41.929
	L33.458,41.929z"/>
<path fill="none" stroke="#021933" stroke-width="0.423" d="M56.984,41.929h0.338c0.078,0,0.143,0.062,0.143,0.14v0.804
	c0,0.078-0.064,0.142-0.143,0.142h-0.338c-0.078,0-0.143-0.064-0.143-0.142v-0.804C56.842,41.991,56.906,41.929,56.984,41.929
	L56.984,41.929z"/>
<path fill="none" stroke="#021933" stroke-width="0.423" d="M32.525,41.929h0.337c0.079,0,0.143,0.062,0.143,0.14v0.804
	c0,0.078-0.064,0.142-0.143,0.142h-0.337c-0.079,0-0.143-0.064-0.143-0.142v-0.804C32.382,41.991,32.447,41.929,32.525,41.929
	L32.525,41.929z"/>
<path fill="none" stroke="#021933" stroke-width="0.423" d="M56.051,41.929h0.338c0.078,0,0.143,0.062,0.143,0.14v0.804
	c0,0.078-0.064,0.142-0.143,0.142h-0.338c-0.078,0-0.141-0.064-0.141-0.142v-0.804C55.91,41.991,55.973,41.929,56.051,41.929
	L56.051,41.929z"/>
<path fill="none" stroke="#021933" stroke-width="0.423" d="M31.592,41.929h0.338c0.079,0,0.143,0.062,0.143,0.14v0.804
	c0,0.078-0.063,0.142-0.143,0.142h-0.338c-0.078,0-0.142-0.064-0.142-0.142v-0.804C31.45,41.991,31.514,41.929,31.592,41.929
	L31.592,41.929z"/>
<rect x="63.428" y="48.145" fill="none" stroke="#021933" stroke-width="0.423" width="1.477" height="2.402"/>
<rect x="38.446" y="48.145" fill="none" stroke="#021933" stroke-width="0.423" width="1.476" height="2.402"/>
<rect x="63.428" y="45.179" fill="none" stroke="#021933" stroke-width="0.423" width="1.477" height="2.402"/>
<rect x="52.623" y="47.439" fill="none" stroke="#021933" stroke-width="0.423" width="1.479" height="2.401"/>
<rect x="43.986" y="47.439" fill="none" stroke="#021933" stroke-width="0.423" width="1.479" height="2.401"/>
<rect x="52.623" y="44.756" fill="none" stroke="#021933" stroke-width="0.423" width="1.479" height="2.4"/>
<rect x="43.986" y="44.756" fill="none" stroke="#021933" stroke-width="0.423" width="1.479" height="2.4"/>
<rect x="38.446" y="45.179" fill="none" stroke="#021933" stroke-width="0.423" width="1.476" height="2.402"/>
<rect x="60.75" y="48.145" fill="none" stroke="#021933" stroke-width="0.423" width="1.477" height="2.402"/>
<rect x="35.767" y="48.145" fill="none" stroke="#021933" stroke-width="0.423" width="1.478" height="2.402"/>
<rect x="60.75" y="45.179" fill="none" stroke="#021933" stroke-width="0.423" width="1.477" height="2.402"/>
<rect x="35.767" y="45.179" fill="none" stroke="#021933" stroke-width="0.423" width="1.478" height="2.402"/>
<rect x="58.072" y="48.145" fill="none" stroke="#021933" stroke-width="0.423" width="1.477" height="2.402"/>
<rect x="33.089" y="48.145" fill="none" stroke="#021933" stroke-width="0.423" width="1.476" height="2.402"/>
<rect x="58.072" y="45.179" fill="none" stroke="#021933" stroke-width="0.423" width="1.477" height="2.402"/>
<rect x="33.089" y="45.179" fill="none" stroke="#021933" stroke-width="0.423" width="1.476" height="2.402"/>
<rect x="65.691" y="43.343" fill="none" stroke="#021933" stroke-width="0.423" width="1.57" height="8.803"/>
<rect x="40.661" y="43.343" fill="none" stroke="#021933" stroke-width="0.423" width="1.572" height="8.803"/>
<rect x="55.947" y="43.343" fill="none" stroke="#021933" stroke-width="0.423" width="1.57" height="8.803"/>
<rect x="30.917" y="43.343" fill="none" stroke="#021933" stroke-width="0.423" width="1.571" height="8.803"/>
<path fill="none" stroke="#021933" stroke-width="0.423" d="M55,49.652c0.346,0,0.625,0.357,0.625,0.799
	c0,0.443-0.279,0.801-0.625,0.801c-0.344,0-0.623-0.357-0.623-0.801C54.377,50.01,54.656,49.652,55,49.652L55,49.652z"/>
<path fill="none" stroke="#021933" stroke-width="0.423" d="M55,40.471c0.346,0,0.625,0.358,0.625,0.801
	c0,0.442-0.279,0.8-0.625,0.8c-0.344,0-0.623-0.358-0.623-0.8C54.377,40.829,54.656,40.471,55,40.471L55,40.471z"/>
<path fill="none" stroke="#021933" stroke-width="0.423" d="M51.721,49.558c0.346,0,0.625,0.359,0.625,0.802
	c0,0.441-0.279,0.799-0.625,0.799c-0.344,0-0.621-0.357-0.621-0.799C51.1,49.917,51.377,49.558,51.721,49.558L51.721,49.558z"/>
<path fill="none" stroke="#021933" stroke-width="0.423" d="M51.721,41.835c0.346,0,0.625,0.36,0.625,0.802
	c0,0.441-0.279,0.799-0.625,0.799c-0.344,0-0.621-0.358-0.621-0.799C51.1,42.195,51.377,41.835,51.721,41.835L51.721,41.835z"/>
<path fill="none" stroke="#021933" stroke-width="0.423" d="M47.981,49.558c0.344,0,0.622,0.359,0.622,0.802
	c0,0.441-0.278,0.799-0.622,0.799c-0.345,0-0.624-0.357-0.624-0.799C47.357,49.917,47.636,49.558,47.981,49.558L47.981,49.558z"/>
<path fill="none" stroke="#021933" stroke-width="0.423" d="M47.981,41.835c0.344,0,0.622,0.36,0.622,0.802
	c0,0.441-0.278,0.799-0.622,0.799c-0.345,0-0.624-0.358-0.624-0.799C47.357,42.195,47.636,41.835,47.981,41.835L47.981,41.835z"/>
<path fill="none" stroke="#021933" stroke-width="0.423" d="M50.059,49.558c0.344,0,0.623,0.359,0.623,0.802
	c0,0.441-0.279,0.799-0.623,0.799c-0.344,0-0.624-0.357-0.624-0.799C49.435,49.917,49.714,49.558,50.059,49.558L50.059,49.558z"/>
<path fill="none" stroke="#021933" stroke-width="0.423" d="M50.059,41.835c0.344,0,0.623,0.36,0.623,0.802
	c0,0.441-0.279,0.799-0.623,0.799c-0.344,0-0.624-0.358-0.624-0.799C49.435,42.195,49.714,41.835,50.059,41.835L50.059,41.835z"/>
<path fill="none" stroke="#021933" stroke-width="0.423" d="M46.319,49.558c0.345,0,0.622,0.359,0.622,0.802
	c0,0.441-0.277,0.799-0.622,0.799c-0.346,0-0.624-0.357-0.624-0.799C45.695,49.917,45.973,49.558,46.319,49.558L46.319,49.558z"/>
<path fill="none" stroke="#021933" stroke-width="0.423" d="M46.319,41.835c0.345,0,0.622,0.36,0.622,0.802
	c0,0.441-0.277,0.799-0.622,0.799c-0.346,0-0.624-0.358-0.624-0.799C45.695,42.195,45.973,41.835,46.319,41.835L46.319,41.835z"/>
<path fill="none" stroke="#021933" stroke-width="0.423" d="M43.271,49.652c0.345,0,0.622,0.357,0.622,0.799
	c0,0.443-0.277,0.801-0.622,0.801c-0.345,0-0.625-0.357-0.625-0.801C42.646,50.01,42.926,49.652,43.271,49.652L43.271,49.652z"/>
<path fill="none" stroke="#021933" stroke-width="0.423" d="M63.127,50.639c0.346,0,0.625,0.361,0.625,0.803
	s-0.279,0.801-0.625,0.801c-0.344,0-0.623-0.359-0.623-0.801S62.783,50.639,63.127,50.639L63.127,50.639z"/>
<path fill="none" stroke="#021933" stroke-width="0.423" d="M38.006,50.639c0.345,0,0.625,0.361,0.625,0.803
	s-0.28,0.801-0.625,0.801c-0.343,0-0.622-0.359-0.622-0.801S37.663,50.639,38.006,50.639L38.006,50.639z"/>
<path fill="none" stroke="#021933" stroke-width="0.423" d="M63.127,43.343c0.346,0,0.625,0.358,0.625,0.799
	s-0.279,0.801-0.625,0.801c-0.344,0-0.623-0.36-0.623-0.801S62.783,43.343,63.127,43.343L63.127,43.343z"/>
<path fill="none" stroke="#021933" stroke-width="0.423" d="M38.006,43.343c0.345,0,0.625,0.358,0.625,0.799
	s-0.28,0.801-0.625,0.801c-0.343,0-0.622-0.36-0.622-0.801S37.663,43.343,38.006,43.343L38.006,43.343z"/>
<path fill="none" stroke="#021933" stroke-width="0.423" d="M60.125,50.639c0.346,0,0.625,0.361,0.625,0.803
	s-0.279,0.801-0.625,0.801c-0.344,0-0.623-0.359-0.623-0.801S59.781,50.639,60.125,50.639L60.125,50.639z"/>
<path fill="none" stroke="#021933" stroke-width="0.423" d="M35.005,50.639c0.343,0,0.623,0.361,0.623,0.803
	s-0.279,0.801-0.623,0.801c-0.345,0-0.624-0.359-0.624-0.801S34.661,50.639,35.005,50.639L35.005,50.639z"/>
<path fill="none" stroke="#021933" stroke-width="0.423" d="M60.125,43.343c0.346,0,0.625,0.358,0.625,0.799
	s-0.279,0.801-0.625,0.801c-0.344,0-0.623-0.36-0.623-0.801S59.781,43.343,60.125,43.343L60.125,43.343z"/>
<path fill="none" stroke="#021933" stroke-width="0.423" d="M35.005,43.343c0.343,0,0.623,0.358,0.623,0.799
	s-0.279,0.801-0.623,0.801c-0.345,0-0.624-0.36-0.624-0.801S34.661,43.343,35.005,43.343L35.005,43.343z"/>
<path fill="none" stroke="#021933" stroke-width="0.423" d="M43.271,40.471c0.345,0,0.622,0.358,0.622,0.801
	c0,0.442-0.277,0.8-0.622,0.8c-0.345,0-0.625-0.358-0.625-0.8C42.646,40.829,42.926,40.471,43.271,40.471L43.271,40.471z"/>
<rect x="46.819" y="35.731" fill="none" stroke="#021933" stroke-width="0.423" width="4.47" height="2.259"/>
<rect x="49.248" y="30.853" fill="none" stroke="#021933" stroke-width="0.423" width="0.762" height="1.735"/>
<rect x="48.132" y="30.853" fill="none" stroke="#021933" stroke-width="0.423" width="0.763" height="1.735"/>
<path fill="none" stroke="#021933" stroke-width="0.423" d="M50.373,30.842v1.756h1.35C51.678,31.574,51.117,31.079,50.373,30.842
	L50.373,30.842z"/>
<path fill="none" stroke="#021933" stroke-width="0.423" d="M47.693,30.842v1.756h-1.351C46.388,31.574,46.948,31.079,47.693,30.842
	L47.693,30.842z"/>
<path fill="none" stroke="#021933" stroke-width="0.423" d="M47.693,30.842"/>
<path fill-rule="evenodd" clip-rule="evenodd" fill="#021933" d="M25.816,30.937l1.504-1.673l0.083,0.075l-0.076,0.083
	c-0.113,0.126-0.177,0.225-0.193,0.296c-0.017,0.071-0.009,0.139,0.018,0.199c0.03,0.062,0.137,0.177,0.323,0.345l1.588,1.428
	c0.29,0.261,0.503,0.411,0.635,0.453c0.135,0.04,0.275,0.039,0.429-0.006c0.153-0.045,0.298-0.145,0.437-0.295
	c0.157-0.177,0.251-0.361,0.282-0.555c0.031-0.195,0.008-0.386-0.076-0.571c-0.084-0.185-0.297-0.433-0.643-0.743l-1.323-1.188
	c-0.146-0.131-0.265-0.21-0.354-0.235c-0.09-0.027-0.168-0.027-0.233-0.002c-0.103,0.038-0.21,0.123-0.329,0.253l-0.083-0.075
	l1.007-1.12l0.084,0.075l-0.061,0.066c-0.082,0.091-0.13,0.182-0.148,0.277c-0.018,0.093-0.002,0.186,0.048,0.281
	c0.035,0.065,0.117,0.159,0.25,0.279l1.232,1.108c0.382,0.341,0.633,0.615,0.758,0.816c0.125,0.202,0.171,0.463,0.139,0.787
	c-0.035,0.321-0.201,0.649-0.501,0.985c-0.254,0.281-0.486,0.464-0.698,0.549c-0.291,0.117-0.553,0.148-0.79,0.09
	c-0.235-0.056-0.489-0.208-0.759-0.449l-1.588-1.429c-0.188-0.168-0.313-0.263-0.377-0.283c-0.066-0.021-0.133-0.018-0.208,0.009
	c-0.073,0.025-0.17,0.108-0.292,0.247L25.816,30.937z M30.835,25.918l3.336,0.891l-1.117-1.505
	c-0.157-0.212-0.292-0.333-0.409-0.363c-0.159-0.04-0.334,0.014-0.526,0.163l-0.066-0.09l1.157-0.858l0.067,0.089
	c-0.135,0.13-0.215,0.229-0.244,0.296c-0.028,0.068-0.031,0.146-0.008,0.237c0.022,0.089,0.096,0.219,0.219,0.385l2.165,2.918
	l-0.088,0.064l-4.533-1.166l1.657,2.234c0.151,0.203,0.299,0.306,0.443,0.308c0.146,0.003,0.279-0.041,0.398-0.129l0.082-0.06
	l0.067,0.089l-1.248,0.925l-0.066-0.089c0.192-0.146,0.296-0.285,0.316-0.42c0.016-0.135-0.044-0.295-0.183-0.483l-1.838-2.479
	l-0.14-0.037c-0.145-0.041-0.257-0.053-0.336-0.042c-0.079,0.013-0.173,0.056-0.283,0.132l-0.065-0.09L30.835,25.918z
	 M38.029,26.364l0.053,0.098l-2.006,1.066l-0.051-0.099l0.126-0.068c0.112-0.058,0.19-0.127,0.238-0.202
	c0.034-0.053,0.049-0.119,0.04-0.199c-0.004-0.055-0.057-0.181-0.161-0.376l-1.351-2.538c-0.105-0.199-0.18-0.318-0.228-0.356
	c-0.048-0.038-0.114-0.061-0.196-0.064c-0.082-0.003-0.177,0.024-0.286,0.081l-0.126,0.068l-0.053-0.099l2.003-1.066l0.053,0.099
	l-0.125,0.067c-0.112,0.059-0.19,0.125-0.235,0.203c-0.035,0.053-0.05,0.119-0.042,0.199c0.003,0.057,0.056,0.183,0.161,0.376
	l1.348,2.54c0.106,0.198,0.183,0.316,0.23,0.354c0.049,0.039,0.113,0.06,0.197,0.062c0.082,0.006,0.176-0.021,0.284-0.079
	L38.029,26.364z M41.287,20.58l0.033,0.107c-0.142,0.073-0.252,0.195-0.327,0.371c-0.053,0.129-0.104,0.413-0.155,0.847
	l-0.421,3.629l-0.1,0.033l-2.464-2.865c-0.297-0.347-0.487-0.546-0.566-0.597c-0.082-0.051-0.206-0.061-0.372-0.027l-0.033-0.108
	l1.982-0.625l0.034,0.108l-0.068,0.02c-0.18,0.057-0.295,0.12-0.346,0.186c-0.037,0.043-0.046,0.098-0.026,0.158
	c0.011,0.039,0.034,0.081,0.066,0.126c0.033,0.043,0.129,0.163,0.294,0.354l1.539,1.789l0.237-2.099
	c0.027-0.255,0.042-0.427,0.04-0.509c-0.002-0.084-0.011-0.154-0.027-0.208c-0.02-0.061-0.053-0.109-0.101-0.148
	c-0.049-0.037-0.107-0.059-0.181-0.064c-0.097-0.005-0.219,0.012-0.365,0.059l-0.032-0.106L41.287,20.58z M43.784,20.281
	l0.274,1.757l0.085-0.015c0.274-0.042,0.458-0.159,0.555-0.349c0.096-0.189,0.137-0.454,0.118-0.794l0.124-0.02l0.35,2.258
	l-0.124,0.018c-0.064-0.243-0.148-0.434-0.254-0.579c-0.107-0.144-0.217-0.235-0.333-0.272c-0.117-0.038-0.279-0.04-0.486-0.007
	l0.19,1.212c0.036,0.235,0.068,0.38,0.097,0.429c0.027,0.051,0.073,0.088,0.133,0.113c0.06,0.024,0.152,0.028,0.273,0.01l0.26-0.041
	c0.401-0.062,0.71-0.207,0.923-0.429c0.215-0.223,0.345-0.533,0.39-0.931l0.119-0.019l0.019,1.4L42.776,24.6l-0.017-0.109
	l0.143-0.024c0.124-0.018,0.221-0.057,0.29-0.113c0.051-0.038,0.085-0.097,0.102-0.173c0.017-0.056,0.008-0.19-0.027-0.409
	l-0.441-2.841c-0.029-0.197-0.055-0.316-0.073-0.36c-0.031-0.073-0.078-0.125-0.143-0.155c-0.089-0.045-0.204-0.06-0.344-0.038
	l-0.141,0.022l-0.019-0.111l3.604-0.559l0.197,1.276l-0.125,0.018c-0.107-0.303-0.229-0.513-0.361-0.631
	c-0.132-0.119-0.303-0.194-0.517-0.227c-0.124-0.02-0.349-0.004-0.674,0.046L43.784,20.281z M48.736,21.96l0.002,1.231
	c0,0.233,0.015,0.383,0.046,0.444c0.027,0.062,0.079,0.109,0.151,0.146c0.075,0.037,0.21,0.055,0.411,0.055v0.112l-2.232,0.003
	v-0.113c0.203,0,0.339-0.018,0.411-0.057c0.071-0.037,0.122-0.085,0.149-0.146c0.031-0.061,0.044-0.208,0.044-0.444l-0.004-2.849
	c0-0.237-0.014-0.383-0.044-0.445c-0.029-0.06-0.081-0.11-0.153-0.146c-0.073-0.035-0.21-0.053-0.409-0.053v-0.113l2.028-0.002
	c0.527,0,0.912,0.035,1.156,0.107c0.246,0.074,0.443,0.208,0.6,0.405c0.154,0.195,0.232,0.427,0.232,0.69
	c0,0.323-0.115,0.59-0.346,0.799c-0.15,0.133-0.355,0.233-0.623,0.301l1.049,1.477c0.139,0.189,0.236,0.307,0.295,0.354
	c0.088,0.066,0.189,0.103,0.307,0.108v0.119l-1.373,0.002l-1.411-1.985H48.736z M48.735,19.828l0.001,1.902h0.185
	c0.298,0,0.522-0.028,0.67-0.082c0.147-0.055,0.264-0.153,0.348-0.296c0.084-0.141,0.127-0.327,0.127-0.555
	c0-0.332-0.08-0.577-0.235-0.733c-0.156-0.157-0.406-0.237-0.752-0.235H48.735z M56.924,20.684l-3.379,3.482l0.811,0.177
	c0.385,0.082,0.658,0.117,0.82,0.101c0.266-0.02,0.512-0.113,0.734-0.277s0.408-0.409,0.551-0.733l0.121,0.025l-0.506,1.507
	l-3.898-0.847l3.381-3.49l-0.631-0.137c-0.244-0.053-0.41-0.08-0.49-0.082c-0.15-0.005-0.303,0.018-0.447,0.071
	c-0.146,0.053-0.277,0.137-0.391,0.254c-0.113,0.115-0.217,0.27-0.311,0.463l-0.115-0.026l0.385-1.219L56.924,20.684z
	 M58.611,25.905l-0.039,0.104l-2.119-0.817l0.039-0.104l0.137,0.053c0.117,0.044,0.221,0.06,0.309,0.045
	c0.062-0.009,0.121-0.042,0.176-0.1c0.039-0.039,0.1-0.161,0.18-0.367l1.035-2.683c0.082-0.209,0.119-0.344,0.119-0.407
	c-0.004-0.06-0.029-0.124-0.08-0.188c-0.051-0.065-0.135-0.12-0.248-0.164l-0.135-0.052l0.041-0.104l2.117,0.816l-0.039,0.105
	l-0.133-0.052c-0.117-0.044-0.223-0.059-0.309-0.045c-0.062,0.009-0.121,0.042-0.178,0.098c-0.041,0.041-0.1,0.163-0.18,0.369
	l-1.035,2.683c-0.08,0.209-0.121,0.345-0.119,0.407c0.004,0.061,0.031,0.124,0.082,0.188c0.051,0.066,0.133,0.12,0.246,0.165
	L58.611,25.905z M64.377,24.093l-0.531,1.051l-0.1-0.051c0.062-0.274,0.082-0.482,0.062-0.626c-0.023-0.145-0.082-0.279-0.18-0.409
	c-0.057-0.071-0.176-0.153-0.355-0.245l-0.295-0.15l-1.523,3.006c-0.1,0.2-0.152,0.332-0.156,0.392
	c-0.004,0.062,0.016,0.127,0.061,0.195c0.043,0.071,0.119,0.133,0.229,0.188l0.129,0.066l-0.051,0.099l-2.027-1.026l0.053-0.1
	l0.127,0.065c0.111,0.057,0.213,0.083,0.301,0.077c0.064-0.003,0.127-0.029,0.188-0.08c0.045-0.037,0.115-0.151,0.217-0.349
	l1.521-3.006l-0.281-0.142c-0.26-0.131-0.479-0.171-0.652-0.123c-0.244,0.071-0.459,0.239-0.646,0.504l-0.113-0.057l0.533-1.051
	L64.377,24.093z M66.623,26.254l-1.162,1.343l0.064,0.057c0.211,0.181,0.42,0.249,0.627,0.197c0.207-0.049,0.436-0.189,0.682-0.423
	l0.094,0.083l-1.494,1.726l-0.094-0.082c0.143-0.204,0.236-0.395,0.277-0.568c0.041-0.175,0.037-0.317-0.008-0.431
	c-0.047-0.113-0.152-0.238-0.309-0.374L64.5,28.708c-0.158,0.181-0.246,0.298-0.266,0.352c-0.02,0.055-0.02,0.111,0,0.175
	c0.021,0.062,0.078,0.133,0.17,0.215l0.197,0.17c0.309,0.267,0.617,0.409,0.926,0.429c0.309,0.019,0.629-0.082,0.963-0.305
	l0.09,0.079l-1.055,0.92l-2.848-2.466l0.072-0.084l0.109,0.093c0.096,0.083,0.188,0.133,0.275,0.149
	c0.062,0.013,0.127,0.002,0.199-0.035c0.051-0.023,0.148-0.119,0.293-0.285l1.883-2.175c0.129-0.152,0.205-0.246,0.227-0.289
	c0.033-0.071,0.043-0.14,0.023-0.208c-0.021-0.1-0.084-0.195-0.191-0.288l-0.109-0.093l0.074-0.085l2.758,2.387l-0.846,0.975
	l-0.094-0.08c0.16-0.281,0.242-0.51,0.246-0.687c0.006-0.177-0.049-0.356-0.16-0.539c-0.064-0.107-0.223-0.268-0.471-0.483
	L66.623,26.254z M71.889,31.495l-0.906,0.752l-0.072-0.085c0.166-0.227,0.268-0.411,0.305-0.55c0.039-0.141,0.039-0.29-0.002-0.447
	c-0.021-0.086-0.098-0.208-0.227-0.367l-0.211-0.252L68.184,32.7c-0.172,0.143-0.273,0.243-0.303,0.296
	c-0.027,0.055-0.033,0.124-0.021,0.204c0.014,0.082,0.059,0.17,0.139,0.265l0.09,0.109l-0.086,0.071l-1.451-1.747l0.086-0.071
	l0.094,0.109c0.078,0.097,0.162,0.161,0.244,0.189c0.059,0.024,0.127,0.024,0.205,0.002c0.053-0.016,0.166-0.093,0.336-0.234
	l2.59-2.153l-0.201-0.243c-0.186-0.225-0.369-0.349-0.551-0.37c-0.252-0.033-0.514,0.037-0.793,0.203l-0.08-0.095l0.906-0.753
	L71.889,31.495z M71.889,31.495"/>
<path fill-rule="evenodd" clip-rule="evenodd" fill="#021933" d="M31.492,68.023l1.856,1.273l-0.064,0.092l-0.093-0.064
	c-0.141-0.096-0.246-0.146-0.319-0.154c-0.071-0.004-0.137,0.01-0.194,0.045c-0.059,0.037-0.159,0.158-0.299,0.365l-1.208,1.762
	c-0.221,0.322-0.343,0.553-0.367,0.689c-0.021,0.139-0.001,0.275,0.062,0.422c0.064,0.146,0.183,0.277,0.35,0.395
	c0.195,0.133,0.391,0.203,0.588,0.209c0.195,0.004,0.382-0.045,0.555-0.152c0.173-0.105,0.391-0.35,0.653-0.732l1.005-1.467
	c0.112-0.162,0.174-0.289,0.188-0.381c0.013-0.094,0.004-0.17-0.029-0.234c-0.051-0.094-0.149-0.191-0.294-0.291l0.062-0.094
	l1.243,0.854l-0.063,0.092L35.051,70.6c-0.1-0.068-0.198-0.105-0.293-0.109c-0.095-0.006-0.186,0.021-0.272,0.084
	c-0.062,0.041-0.144,0.135-0.244,0.285l-0.938,1.365c-0.29,0.422-0.525,0.707-0.709,0.857c-0.185,0.148-0.438,0.23-0.762,0.238
	c-0.325,0.01-0.672-0.113-1.044-0.369c-0.312-0.213-0.522-0.42-0.635-0.617c-0.153-0.273-0.217-0.529-0.192-0.773
	c0.026-0.24,0.143-0.512,0.347-0.811l1.208-1.76c0.143-0.211,0.221-0.348,0.231-0.412c0.011-0.068,0-0.135-0.035-0.205
	c-0.036-0.07-0.131-0.156-0.284-0.258L31.492,68.023z M38.827,72.207l-0.542,1.354l-0.12-0.055c0.084-0.359,0.06-0.688-0.077-0.986
	c-0.139-0.301-0.335-0.506-0.597-0.617c-0.203-0.086-0.383-0.1-0.547-0.045c-0.163,0.059-0.276,0.158-0.334,0.297
	c-0.038,0.088-0.051,0.178-0.04,0.264c0.018,0.115,0.071,0.248,0.159,0.393c0.066,0.104,0.23,0.311,0.493,0.619
	c0.373,0.432,0.597,0.785,0.671,1.059c0.075,0.273,0.057,0.543-0.056,0.807c-0.144,0.336-0.398,0.568-0.763,0.695
	c-0.363,0.131-0.747,0.109-1.15-0.062c-0.126-0.055-0.241-0.117-0.341-0.191c-0.102-0.072-0.223-0.182-0.361-0.326
	c-0.079-0.08-0.148-0.131-0.209-0.16c-0.051-0.021-0.114-0.023-0.187-0.008c-0.077,0.016-0.147,0.057-0.219,0.123l-0.102-0.045
	l0.646-1.514l0.104,0.045c-0.095,0.461-0.066,0.857,0.085,1.186c0.151,0.33,0.371,0.557,0.657,0.678
	c0.221,0.096,0.423,0.109,0.606,0.045c0.182-0.064,0.307-0.174,0.375-0.334c0.04-0.094,0.055-0.197,0.042-0.307
	c-0.013-0.111-0.053-0.227-0.12-0.352c-0.07-0.125-0.207-0.305-0.413-0.543c-0.289-0.338-0.485-0.602-0.589-0.797
	c-0.106-0.193-0.167-0.387-0.186-0.578c-0.019-0.193,0.011-0.381,0.091-0.568c0.137-0.32,0.37-0.543,0.7-0.668
	c0.331-0.123,0.674-0.109,1.031,0.043c0.131,0.057,0.25,0.123,0.359,0.207c0.083,0.064,0.177,0.156,0.283,0.277
	c0.105,0.119,0.184,0.191,0.237,0.215c0.051,0.021,0.099,0.023,0.142,0.006c0.042-0.021,0.103-0.082,0.179-0.191L38.827,72.207z
	 M40.51,76.172l-1.475-0.391l-0.292,0.361c-0.095,0.123-0.153,0.23-0.177,0.32c-0.033,0.121-0.007,0.221,0.071,0.303
	c0.047,0.049,0.179,0.109,0.394,0.186l-0.029,0.107L37.6,76.688l0.029-0.107c0.157,0.016,0.3-0.014,0.424-0.092
	s0.303-0.258,0.531-0.547l2.395-2.961l0.061,0.016l0.604,3.855c0.059,0.371,0.121,0.609,0.191,0.721
	c0.053,0.084,0.143,0.148,0.27,0.191l-0.029,0.109l-2.039-0.539l0.03-0.107l0.084,0.021c0.162,0.041,0.284,0.049,0.363,0.021
	c0.053-0.021,0.089-0.064,0.105-0.127c0.01-0.039,0.015-0.078,0.013-0.123c0-0.018-0.009-0.105-0.031-0.26L40.51,76.172z
	 M40.471,75.916l-0.248-1.604l-1.024,1.268L40.471,75.916z M44.126,76.18l-0.151,1.223c-0.029,0.232-0.035,0.383-0.01,0.447
	c0.02,0.062,0.063,0.117,0.131,0.16c0.069,0.047,0.203,0.08,0.399,0.107l-0.014,0.111l-2.214-0.277l0.015-0.111
	c0.201,0.025,0.339,0.023,0.415-0.004c0.076-0.029,0.133-0.072,0.168-0.127c0.036-0.057,0.069-0.201,0.098-0.434l0.354-2.828
	c0.029-0.234,0.033-0.383,0.011-0.445c-0.02-0.064-0.065-0.119-0.133-0.164c-0.067-0.047-0.201-0.082-0.4-0.107l0.015-0.109
	l2.012,0.25c0.523,0.066,0.901,0.15,1.134,0.252c0.234,0.104,0.415,0.262,0.544,0.477c0.13,0.215,0.177,0.453,0.145,0.715
	c-0.041,0.32-0.188,0.57-0.443,0.748c-0.165,0.115-0.384,0.189-0.655,0.223l0.854,1.594c0.114,0.207,0.197,0.336,0.249,0.389
	c0.081,0.076,0.177,0.127,0.292,0.146l-0.015,0.119l-1.363-0.17l-1.15-2.148L44.126,76.18z M44.392,74.062l-0.235,1.889l0.182,0.023
	c0.296,0.037,0.521,0.037,0.674,0.002c0.155-0.035,0.283-0.119,0.383-0.248c0.103-0.133,0.168-0.309,0.195-0.537
	c0.042-0.33-0.006-0.58-0.141-0.756c-0.135-0.178-0.374-0.287-0.715-0.328L44.392,74.062z M49.902,77.168l-1.526,0.033l-0.181,0.43
	c-0.056,0.145-0.083,0.262-0.082,0.355c0.004,0.125,0.055,0.215,0.154,0.271c0.059,0.035,0.202,0.057,0.429,0.068l0.003,0.111
	l-1.449,0.033l-0.001-0.113c0.155-0.027,0.283-0.096,0.379-0.203c0.099-0.111,0.219-0.336,0.36-0.674l1.479-3.508l0.062-0.002
	l1.651,3.535c0.156,0.342,0.283,0.555,0.383,0.643c0.074,0.064,0.178,0.102,0.312,0.109v0.111l-2.107,0.047l-0.002-0.113
	l0.087-0.002c0.168-0.004,0.288-0.029,0.354-0.08c0.047-0.035,0.068-0.086,0.068-0.15c-0.002-0.039-0.008-0.08-0.021-0.121
	c-0.006-0.018-0.039-0.1-0.104-0.242L49.902,77.168z M49.793,76.934l-0.683-1.473l-0.633,1.5L49.793,76.934z M52.141,73.863
	l-0.02-0.107l2.285-0.396l0.018,0.113l-0.139,0.023c-0.127,0.021-0.223,0.061-0.293,0.117c-0.047,0.041-0.08,0.1-0.1,0.176
	c-0.012,0.055-0.002,0.191,0.035,0.408l0.363,2.107c0.07,0.412,0.082,0.721,0.033,0.922c-0.053,0.199-0.17,0.383-0.359,0.543
	c-0.189,0.162-0.43,0.27-0.727,0.32c-0.361,0.064-0.668,0.018-0.924-0.135c-0.256-0.15-0.402-0.342-0.441-0.574
	c-0.025-0.146,0-0.273,0.072-0.381c0.076-0.107,0.18-0.174,0.312-0.197c0.127-0.021,0.244,0.002,0.344,0.068
	c0.104,0.066,0.166,0.16,0.186,0.279c0.01,0.061,0.012,0.113,0.006,0.16c-0.006,0.023-0.029,0.082-0.072,0.176
	c-0.043,0.096-0.062,0.162-0.057,0.197c0.012,0.055,0.045,0.098,0.107,0.129c0.09,0.045,0.199,0.057,0.326,0.035
	c0.092-0.016,0.162-0.053,0.213-0.109s0.08-0.137,0.088-0.238c0.006-0.102-0.027-0.377-0.104-0.824l-0.396-2.301
	c-0.039-0.221-0.076-0.357-0.109-0.408s-0.09-0.092-0.168-0.121s-0.178-0.033-0.299-0.012L52.141,73.863z M56.217,72.996
	l0.562,1.686l0.082-0.027c0.264-0.088,0.426-0.232,0.49-0.438c0.061-0.205,0.059-0.471-0.018-0.803l0.119-0.041l0.723,2.166
	l-0.119,0.041c-0.102-0.229-0.219-0.404-0.346-0.527c-0.131-0.125-0.254-0.195-0.377-0.215c-0.119-0.016-0.281,0.008-0.479,0.074
	l0.389,1.164c0.076,0.229,0.133,0.363,0.168,0.408c0.035,0.043,0.086,0.074,0.15,0.088c0.064,0.016,0.156,0.002,0.271-0.037
	l0.248-0.084c0.387-0.127,0.666-0.32,0.84-0.576s0.252-0.584,0.23-0.982l0.113-0.039l0.252,1.377l-3.572,1.193l-0.035-0.105
	l0.137-0.047c0.119-0.041,0.209-0.096,0.268-0.16c0.043-0.047,0.068-0.109,0.072-0.191c0.006-0.053-0.027-0.186-0.096-0.396
	l-0.91-2.729c-0.064-0.188-0.107-0.301-0.133-0.342c-0.043-0.064-0.1-0.107-0.168-0.127c-0.096-0.033-0.211-0.025-0.344,0.018
	L54.6,73.391l-0.035-0.107l3.459-1.154l0.408,1.225l-0.119,0.041c-0.158-0.281-0.314-0.469-0.463-0.564
	c-0.15-0.094-0.33-0.139-0.547-0.135c-0.125,0-0.344,0.053-0.656,0.158L56.217,72.996z M62.143,70.008l0.053,0.098
	c-0.131,0.098-0.217,0.236-0.262,0.424c-0.029,0.137-0.033,0.422-0.01,0.859l0.195,3.648l-0.092,0.049l-2.912-2.408
	c-0.352-0.293-0.572-0.453-0.658-0.492c-0.09-0.037-0.213-0.025-0.373,0.035l-0.051-0.102l1.852-0.951l0.051,0.102l-0.064,0.031
	c-0.166,0.088-0.27,0.168-0.309,0.24c-0.031,0.051-0.029,0.105,0,0.162c0.02,0.035,0.047,0.074,0.086,0.113
	c0.041,0.039,0.156,0.139,0.352,0.299l1.816,1.506l-0.121-2.109c-0.016-0.26-0.029-0.43-0.047-0.51
	c-0.014-0.082-0.035-0.148-0.061-0.199c-0.031-0.057-0.07-0.102-0.125-0.131c-0.053-0.027-0.115-0.039-0.186-0.031
	c-0.1,0.01-0.217,0.049-0.352,0.119l-0.051-0.1L62.143,70.008z M61.895,70.18l1.758-1.404l0.07,0.086l-0.088,0.072
	c-0.133,0.105-0.213,0.191-0.238,0.258c-0.031,0.068-0.033,0.137-0.016,0.199c0.018,0.068,0.105,0.197,0.264,0.395l1.332,1.666
	c0.244,0.307,0.428,0.488,0.553,0.551c0.123,0.062,0.264,0.084,0.424,0.066c0.156-0.02,0.316-0.094,0.479-0.223
	c0.184-0.146,0.307-0.314,0.369-0.5s0.07-0.377,0.016-0.574c-0.051-0.197-0.223-0.477-0.51-0.838l-1.111-1.389
	c-0.123-0.154-0.227-0.252-0.311-0.293c-0.084-0.039-0.16-0.053-0.23-0.039c-0.107,0.021-0.229,0.086-0.367,0.197l-0.068-0.088
	l1.178-0.941l0.068,0.088l-0.068,0.057c-0.098,0.076-0.16,0.158-0.193,0.246c-0.031,0.09-0.029,0.186,0.002,0.287
	c0.023,0.07,0.088,0.176,0.201,0.316l1.035,1.295c0.318,0.4,0.523,0.709,0.613,0.93c0.09,0.219,0.092,0.484,0.008,0.797
	c-0.086,0.312-0.305,0.607-0.658,0.891c-0.295,0.236-0.553,0.379-0.775,0.428c-0.307,0.068-0.57,0.055-0.795-0.041
	c-0.223-0.094-0.449-0.285-0.676-0.566l-1.332-1.668c-0.158-0.199-0.268-0.312-0.326-0.344c-0.062-0.029-0.131-0.039-0.207-0.025
	c-0.076,0.016-0.186,0.08-0.328,0.197L61.895,70.18z M61.895,70.18"/>
<path fill-rule="evenodd" clip-rule="evenodd" fill="#021933" d="M21.052,15.879l2.215-1.544l0.077,0.11l-0.111,0.079
	c-0.168,0.117-0.271,0.213-0.307,0.292c-0.04,0.079-0.049,0.159-0.032,0.237c0.016,0.08,0.109,0.244,0.282,0.492l1.464,2.103
	c0.269,0.383,0.473,0.617,0.617,0.701c0.146,0.086,0.312,0.12,0.504,0.111c0.189-0.009,0.387-0.086,0.589-0.227
	c0.232-0.162,0.393-0.352,0.484-0.57c0.089-0.218,0.111-0.447,0.066-0.688c-0.047-0.239-0.23-0.588-0.548-1.044l-1.219-1.75
	c-0.135-0.193-0.251-0.319-0.348-0.373c-0.099-0.056-0.189-0.078-0.272-0.067c-0.129,0.018-0.282,0.086-0.455,0.206l-0.077-0.109
	l1.484-1.033l0.077,0.109l-0.089,0.062c-0.119,0.084-0.201,0.177-0.249,0.281c-0.045,0.104-0.053,0.219-0.02,0.343
	c0.02,0.086,0.092,0.217,0.215,0.395l1.135,1.631c0.352,0.506,0.571,0.893,0.663,1.161c0.089,0.272,0.071,0.589-0.055,0.956
	c-0.128,0.369-0.412,0.705-0.857,1.015c-0.372,0.259-0.692,0.409-0.964,0.45c-0.371,0.057-0.686,0.021-0.947-0.111
	c-0.261-0.133-0.515-0.378-0.763-0.734l-1.466-2.103c-0.173-0.25-0.295-0.394-0.365-0.436c-0.069-0.04-0.15-0.056-0.243-0.046
	c-0.093,0.012-0.23,0.081-0.409,0.208L21.052,15.879z M27.793,11.431l3.809,1.632l-1.068-1.979c-0.15-0.278-0.291-0.445-0.423-0.501
	c-0.181-0.075-0.398-0.039-0.651,0.104l-0.064-0.119l1.522-0.821l0.063,0.119c-0.18,0.129-0.293,0.234-0.339,0.309
	c-0.043,0.077-0.062,0.169-0.051,0.281c0.011,0.109,0.077,0.275,0.194,0.494l2.069,3.838l-0.115,0.062l-5.184-2.167l1.584,2.938
	c0.145,0.267,0.301,0.414,0.475,0.443c0.171,0.027,0.335-0.001,0.492-0.086l0.109-0.059l0.064,0.119l-1.64,0.883l-0.064-0.117
	c0.254-0.141,0.401-0.289,0.447-0.446c0.044-0.157,0-0.357-0.133-0.604l-1.755-3.259l-0.161-0.067
	c-0.166-0.073-0.295-0.11-0.392-0.108c-0.096,0-0.215,0.037-0.358,0.108l-0.064-0.119L27.793,11.431z M36.263,13.208l0.045,0.126
	l-2.559,0.938l-0.045-0.126l0.162-0.06c0.141-0.051,0.247-0.119,0.316-0.202c0.049-0.057,0.076-0.134,0.078-0.229
	c0.006-0.067-0.037-0.226-0.127-0.474l-1.188-3.24c-0.094-0.253-0.165-0.407-0.214-0.46c-0.051-0.053-0.124-0.089-0.223-0.107
	c-0.097-0.019-0.215-0.002-0.354,0.049l-0.161,0.058l-0.047-0.126l2.559-0.938l0.047,0.126L34.39,8.604
	c-0.14,0.051-0.246,0.119-0.313,0.201C34.027,8.864,34,8.938,33.995,9.035c-0.006,0.067,0.038,0.226,0.129,0.474l1.188,3.239
	c0.093,0.254,0.165,0.407,0.215,0.46c0.051,0.053,0.125,0.09,0.221,0.108c0.099,0.018,0.215,0.001,0.352-0.05L36.263,13.208z
	 M40.398,6.623l0.036,0.129c-0.173,0.083-0.306,0.228-0.401,0.437c-0.068,0.155-0.137,0.49-0.208,1.011l-0.597,4.344l-0.122,0.036
	l-2.884-3.497c-0.348-0.423-0.57-0.668-0.664-0.73c-0.095-0.066-0.244-0.079-0.445-0.044l-0.036-0.129l2.395-0.701l0.038,0.129
	l-0.081,0.024c-0.218,0.062-0.359,0.133-0.421,0.213c-0.046,0.053-0.057,0.117-0.037,0.19c0.015,0.045,0.039,0.095,0.077,0.151
	c0.038,0.054,0.153,0.199,0.345,0.434l1.801,2.183l0.335-2.511c0.04-0.307,0.062-0.512,0.062-0.612c0-0.101-0.008-0.182-0.027-0.248
	c-0.022-0.075-0.062-0.135-0.119-0.181s-0.126-0.073-0.213-0.081c-0.117-0.011-0.265,0.009-0.44,0.061l-0.036-0.13L40.398,6.623z
	 M43.442,6.641l0.295,2.111l0.103-0.015c0.33-0.045,0.555-0.183,0.673-0.409c0.118-0.226,0.172-0.544,0.157-0.951l0.148-0.02
	l0.379,2.713l-0.148,0.02c-0.073-0.292-0.171-0.525-0.295-0.699c-0.126-0.175-0.256-0.287-0.396-0.332
	c-0.139-0.047-0.332-0.053-0.58-0.018l0.205,1.457c0.04,0.286,0.075,0.458,0.109,0.518c0.033,0.06,0.086,0.105,0.157,0.137
	c0.073,0.031,0.183,0.039,0.331,0.017l0.31-0.044c0.483-0.067,0.856-0.234,1.117-0.498c0.26-0.263,0.423-0.634,0.485-1.11
	l0.14-0.018l-0.001,1.677l-4.476,0.627l-0.018-0.133l0.17-0.024c0.149-0.021,0.268-0.065,0.352-0.131
	c0.061-0.045,0.102-0.115,0.125-0.206c0.019-0.066,0.011-0.23-0.025-0.491l-0.478-3.418c-0.035-0.237-0.061-0.379-0.083-0.432
	c-0.036-0.088-0.093-0.149-0.169-0.188c-0.106-0.058-0.243-0.077-0.411-0.053l-0.171,0.024L41.43,6.619l4.333-0.606l0.215,1.533
	l-0.15,0.021c-0.124-0.365-0.266-0.619-0.421-0.763c-0.157-0.144-0.361-0.237-0.615-0.281c-0.147-0.025-0.417-0.013-0.808,0.044
	L43.442,6.641z M49.367,8.907l-0.019,1.478c-0.004,0.281,0.011,0.46,0.046,0.533c0.033,0.075,0.095,0.133,0.18,0.177
	c0.088,0.045,0.25,0.069,0.491,0.071l-0.002,0.135l-2.676-0.033v-0.135c0.242,0.003,0.407-0.016,0.495-0.061
	c0.087-0.043,0.148-0.102,0.183-0.173c0.038-0.071,0.056-0.248,0.06-0.531l0.044-3.42c0.002-0.281-0.013-0.46-0.048-0.533
	c-0.033-0.075-0.093-0.133-0.181-0.177c-0.087-0.046-0.25-0.069-0.489-0.073l0.002-0.133l2.431,0.031
	c0.633,0.007,1.096,0.056,1.387,0.148c0.295,0.091,0.531,0.255,0.715,0.494c0.182,0.239,0.27,0.517,0.266,0.834
	c-0.004,0.386-0.148,0.703-0.43,0.953c-0.178,0.157-0.43,0.273-0.75,0.351l1.232,1.788c0.162,0.228,0.279,0.373,0.35,0.431
	c0.104,0.08,0.227,0.124,0.365,0.135l-0.002,0.142l-1.646-0.022l-1.66-2.405L49.367,8.907z M49.398,6.349l-0.027,2.283l0.219,0.004
	c0.357,0.003,0.627-0.025,0.805-0.087c0.178-0.064,0.32-0.181,0.424-0.349c0.104-0.17,0.158-0.39,0.162-0.664
	c0.004-0.398-0.086-0.694-0.271-0.885c-0.184-0.192-0.482-0.291-0.897-0.296L49.398,6.349z M57.467,6.82l-0.246,1.728l-0.154-0.026
	c-0.004-0.443-0.127-0.821-0.371-1.131c-0.246-0.31-0.535-0.491-0.871-0.548c-0.26-0.042-0.477-0.007-0.65,0.106
	c-0.176,0.113-0.275,0.26-0.307,0.439c-0.018,0.115-0.008,0.219,0.031,0.319c0.053,0.13,0.15,0.267,0.295,0.411
	c0.105,0.103,0.357,0.297,0.752,0.583c0.557,0.396,0.918,0.743,1.086,1.042c0.164,0.298,0.219,0.617,0.162,0.957
	c-0.07,0.433-0.301,0.773-0.688,1.029c-0.387,0.254-0.842,0.34-1.359,0.254c-0.16-0.027-0.314-0.069-0.453-0.126
	c-0.141-0.056-0.311-0.148-0.514-0.275c-0.113-0.071-0.211-0.113-0.289-0.126c-0.066-0.011-0.139,0.004-0.223,0.042
	c-0.082,0.04-0.152,0.107-0.217,0.206l-0.131-0.021l0.32-1.949l0.131,0.022c0.023,0.565,0.168,1.02,0.441,1.359
	c0.271,0.339,0.59,0.54,0.959,0.6c0.285,0.048,0.523,0.008,0.719-0.12c0.193-0.126,0.309-0.292,0.342-0.498
	c0.02-0.121,0.008-0.243-0.039-0.369c-0.045-0.124-0.125-0.248-0.24-0.374c-0.117-0.126-0.326-0.297-0.635-0.518
	c-0.434-0.307-0.738-0.561-0.916-0.756C54.225,8.882,54.1,8.673,54.02,8.456c-0.076-0.22-0.094-0.449-0.055-0.689
	c0.068-0.413,0.275-0.737,0.627-0.977c0.35-0.241,0.754-0.321,1.213-0.246c0.168,0.027,0.328,0.075,0.477,0.14
	c0.115,0.052,0.252,0.132,0.408,0.241c0.16,0.109,0.273,0.17,0.34,0.181c0.068,0.013,0.123,0,0.166-0.033
	c0.045-0.034,0.098-0.126,0.156-0.273L57.467,6.82z M60.055,12.98l-0.041,0.127l-2.598-0.828l0.043-0.129l0.164,0.053
	c0.145,0.046,0.268,0.057,0.373,0.033c0.076-0.013,0.143-0.056,0.203-0.129c0.047-0.051,0.109-0.203,0.189-0.455l1.051-3.287
	c0.082-0.257,0.119-0.423,0.113-0.495c-0.008-0.073-0.043-0.146-0.111-0.221c-0.064-0.075-0.166-0.133-0.307-0.179L58.971,7.42
	l0.039-0.13l2.598,0.831l-0.043,0.128L61.4,8.196c-0.143-0.046-0.266-0.057-0.371-0.033c-0.074,0.015-0.141,0.059-0.205,0.13
	c-0.045,0.051-0.107,0.202-0.189,0.455l-1.051,3.287c-0.082,0.257-0.119,0.423-0.111,0.496c0.008,0.073,0.045,0.146,0.109,0.219
	c0.066,0.075,0.168,0.135,0.307,0.179L60.055,12.98z M66.734,9.98l-0.502,1.321l-0.125-0.047c0.039-0.336,0.037-0.586-0.006-0.755
	c-0.041-0.17-0.131-0.325-0.266-0.466c-0.076-0.077-0.225-0.16-0.455-0.247l-0.369-0.143l-1.438,3.782
	c-0.096,0.252-0.141,0.415-0.139,0.487c0.004,0.073,0.037,0.149,0.098,0.226c0.062,0.079,0.162,0.143,0.299,0.195l0.16,0.061
	l-0.047,0.126l-2.549-0.969l0.051-0.126l0.16,0.062c0.141,0.053,0.262,0.071,0.369,0.053c0.074-0.011,0.145-0.049,0.211-0.119
	c0.047-0.049,0.119-0.195,0.213-0.443l1.439-3.78l-0.355-0.135c-0.328-0.124-0.592-0.144-0.793-0.062
	c-0.281,0.115-0.518,0.343-0.711,0.683L61.84,9.632l0.502-1.322L66.734,9.98z M68.17,15.132l-1.592-0.905l-0.449,0.33
	c-0.146,0.113-0.25,0.219-0.305,0.318c-0.074,0.127-0.076,0.252-0.008,0.373c0.039,0.069,0.172,0.182,0.398,0.335L66.146,15.7
	l-1.51-0.861l0.066-0.117c0.178,0.067,0.352,0.077,0.52,0.023c0.168-0.051,0.43-0.208,0.783-0.471l3.688-2.701l0.064,0.037
	l-0.482,4.66c-0.045,0.447-0.047,0.745,0.002,0.894c0.037,0.115,0.119,0.215,0.252,0.307l-0.066,0.117l-2.199-1.251l0.066-0.117
	l0.092,0.051c0.176,0.1,0.314,0.146,0.414,0.137c0.068-0.008,0.123-0.048,0.162-0.115c0.023-0.04,0.041-0.086,0.053-0.137
	c0.008-0.022,0.021-0.127,0.045-0.314L68.17,15.132z M68.203,14.824l0.203-1.936l-1.576,1.155L68.203,14.824z M75.812,15.788
	l-1.066,1.383l-0.123-0.099c0.215-0.389,0.295-0.777,0.234-1.166c-0.061-0.392-0.223-0.693-0.486-0.907
	c-0.205-0.166-0.41-0.243-0.619-0.23c-0.205,0.013-0.369,0.091-0.482,0.232c-0.072,0.091-0.115,0.188-0.131,0.292
	c-0.018,0.141,0,0.308,0.055,0.503c0.041,0.143,0.162,0.437,0.367,0.878c0.289,0.619,0.432,1.101,0.43,1.442
	c-0.004,0.341-0.113,0.646-0.332,0.913c-0.275,0.341-0.643,0.525-1.105,0.555c-0.463,0.031-0.898-0.119-1.309-0.449
	c-0.127-0.104-0.238-0.216-0.332-0.333c-0.092-0.119-0.197-0.284-0.311-0.495c-0.062-0.119-0.127-0.2-0.189-0.251
	c-0.053-0.042-0.121-0.065-0.213-0.073c-0.092-0.005-0.188,0.016-0.291,0.071l-0.104-0.083l1.24-1.537l0.105,0.085
	c-0.262,0.502-0.359,0.969-0.291,1.398c0.07,0.429,0.248,0.761,0.539,0.997c0.225,0.181,0.453,0.265,0.684,0.25
	c0.232-0.015,0.414-0.102,0.545-0.264c0.078-0.095,0.127-0.21,0.148-0.341c0.023-0.13,0.014-0.277-0.025-0.444
	c-0.037-0.166-0.137-0.419-0.297-0.763c-0.223-0.482-0.363-0.853-0.422-1.111c-0.059-0.257-0.066-0.502-0.025-0.729
	c0.043-0.229,0.139-0.438,0.291-0.627c0.264-0.325,0.605-0.506,1.027-0.541c0.422-0.036,0.816,0.091,1.178,0.385
	c0.133,0.108,0.246,0.227,0.346,0.358c0.074,0.1,0.152,0.237,0.236,0.411c0.082,0.173,0.152,0.282,0.205,0.327
	c0.053,0.042,0.105,0.058,0.16,0.051c0.057-0.007,0.146-0.061,0.27-0.16L75.812,15.788z M75.812,15.788"/>
<path fill-rule="evenodd" clip-rule="evenodd" fill="#021933" d="M12.438,59.277l-1.692,0.43l-0.035-0.152
	c0.409-0.172,0.71-0.43,0.903-0.773c0.193-0.348,0.25-0.684,0.175-1.016c-0.061-0.256-0.175-0.443-0.347-0.561
	c-0.17-0.119-0.345-0.156-0.522-0.113c-0.113,0.025-0.206,0.074-0.283,0.146c-0.1,0.098-0.19,0.244-0.269,0.43
	c-0.055,0.139-0.139,0.445-0.252,0.92c-0.153,0.664-0.337,1.131-0.551,1.398c-0.212,0.268-0.485,0.439-0.821,0.516
	c-0.427,0.098-0.831,0.016-1.214-0.246c-0.383-0.262-0.635-0.648-0.751-1.16c-0.039-0.16-0.057-0.314-0.057-0.467
	c-0.001-0.148,0.019-0.344,0.061-0.58c0.021-0.133,0.023-0.236,0.005-0.316c-0.016-0.064-0.056-0.125-0.124-0.188
	c-0.068-0.062-0.159-0.102-0.272-0.123l-0.031-0.131l1.923-0.445l0.031,0.133c-0.514,0.234-0.877,0.543-1.089,0.922
	c-0.21,0.381-0.276,0.752-0.191,1.117c0.065,0.279,0.195,0.488,0.385,0.619c0.192,0.131,0.387,0.174,0.591,0.125
	c0.119-0.027,0.229-0.086,0.328-0.176c0.098-0.09,0.182-0.211,0.255-0.365c0.071-0.152,0.149-0.416,0.235-0.783
	c0.12-0.516,0.239-0.896,0.353-1.135c0.113-0.24,0.257-0.436,0.431-0.59c0.173-0.154,0.378-0.26,0.615-0.314
	c0.407-0.094,0.788-0.025,1.142,0.209c0.356,0.232,0.584,0.572,0.69,1.029c0.037,0.164,0.055,0.328,0.051,0.492
	c-0.004,0.125-0.026,0.283-0.068,0.471c-0.042,0.188-0.055,0.314-0.039,0.385c0.015,0.062,0.046,0.109,0.095,0.139
	c0.048,0.027,0.152,0.041,0.312,0.039L12.438,59.277z M14.045,63.889l-1.315,0.516l-0.049-0.123
	c0.274-0.197,0.458-0.367,0.555-0.514c0.097-0.145,0.151-0.312,0.167-0.508c0.007-0.107-0.034-0.275-0.123-0.504l-0.145-0.367
	L9.37,63.865c-0.252,0.1-0.403,0.174-0.455,0.225c-0.053,0.051-0.086,0.127-0.103,0.225c-0.016,0.098,0.002,0.215,0.057,0.352
	l0.062,0.16l-0.124,0.049l-0.995-2.537l0.124-0.049l0.064,0.16c0.055,0.141,0.124,0.242,0.208,0.309
	c0.059,0.049,0.135,0.074,0.23,0.078c0.07,0.004,0.227-0.045,0.473-0.141l3.766-1.477l-0.139-0.352
	c-0.127-0.328-0.29-0.535-0.487-0.631c-0.275-0.131-0.602-0.15-0.982-0.064l-0.056-0.141l1.318-0.518L14.045,63.889z M14.159,64.172
	l1.248,2.395l-0.119,0.061l-0.062-0.119c-0.095-0.18-0.179-0.295-0.252-0.344c-0.073-0.047-0.15-0.066-0.231-0.062
	c-0.083,0.006-0.256,0.08-0.524,0.221l-2.271,1.184c-0.416,0.215-0.673,0.391-0.775,0.521c-0.103,0.133-0.159,0.295-0.175,0.486
	c-0.013,0.189,0.038,0.395,0.151,0.613c0.13,0.25,0.297,0.434,0.503,0.551c0.205,0.119,0.429,0.168,0.672,0.154
	c0.244-0.018,0.613-0.152,1.106-0.41l1.893-0.986c0.208-0.107,0.347-0.209,0.415-0.299c0.067-0.09,0.1-0.176,0.1-0.262
	c-0.001-0.129-0.049-0.289-0.148-0.477l0.119-0.062l0.838,1.604l-0.121,0.062l-0.049-0.096c-0.068-0.129-0.152-0.223-0.249-0.283
	c-0.097-0.059-0.21-0.08-0.335-0.062c-0.09,0.01-0.229,0.062-0.42,0.162l-1.763,0.918c-0.546,0.285-0.958,0.455-1.235,0.51
	c-0.281,0.053-0.593-0.006-0.942-0.178c-0.348-0.17-0.646-0.498-0.898-0.977c-0.208-0.402-0.316-0.74-0.323-1.014
	c-0.009-0.375,0.068-0.684,0.232-0.926c0.164-0.24,0.438-0.463,0.823-0.664l2.272-1.184c0.271-0.143,0.429-0.244,0.48-0.307
	c0.049-0.066,0.075-0.143,0.077-0.238c0-0.092-0.051-0.236-0.155-0.432L14.159,64.172z M12.552,72.256l0.106-0.082l0.107,0.137
	c0.093,0.119,0.185,0.195,0.272,0.229c0.086,0.035,0.175,0.043,0.265,0.02c0.057-0.014,0.191-0.107,0.407-0.275l2.713-2.129
	c0.214-0.166,0.336-0.283,0.373-0.346c0.035-0.064,0.045-0.146,0.033-0.244c-0.013-0.098-0.064-0.205-0.155-0.32l-0.106-0.135
	l0.104-0.084l1.445,1.84c0.387,0.494,0.63,0.939,0.73,1.346c0.124,0.492,0.093,0.965-0.09,1.414
	c-0.184,0.451-0.485,0.842-0.905,1.17c-0.288,0.227-0.593,0.389-0.91,0.488c-0.316,0.098-0.612,0.137-0.888,0.113
	c-0.273-0.023-0.536-0.094-0.782-0.211c-0.249-0.117-0.509-0.295-0.779-0.533c-0.121-0.104-0.287-0.287-0.495-0.555L12.552,72.256z
	 M17.671,70.771l-3.214,2.521c-0.169,0.133-0.268,0.223-0.292,0.27c-0.027,0.047-0.035,0.098-0.025,0.15
	c0.014,0.078,0.06,0.17,0.142,0.273c0.265,0.34,0.583,0.508,0.955,0.504c0.502,0,1.083-0.258,1.738-0.773
	c0.529-0.414,0.885-0.828,1.071-1.242c0.144-0.328,0.179-0.629,0.104-0.906C18.098,71.373,17.939,71.109,17.671,70.771
	L17.671,70.771z M18.098,78.658l-0.096,0.094l-1.876-1.977l0.097-0.092l0.119,0.125c0.106,0.109,0.209,0.178,0.312,0.209
	c0.073,0.023,0.153,0.018,0.241-0.016c0.064-0.025,0.193-0.127,0.385-0.309l2.502-2.377c0.197-0.184,0.309-0.312,0.337-0.377
	c0.029-0.068,0.033-0.15,0.011-0.246c-0.022-0.098-0.084-0.197-0.186-0.305l-0.119-0.127l0.099-0.09l1.876,1.977l-0.099,0.09
	l-0.119-0.125c-0.102-0.107-0.206-0.178-0.308-0.207c-0.073-0.021-0.153-0.018-0.245,0.016c-0.062,0.023-0.191,0.125-0.384,0.305
	l-2.504,2.377c-0.195,0.188-0.306,0.314-0.336,0.381c-0.027,0.068-0.032,0.15-0.009,0.248c0.022,0.096,0.084,0.197,0.182,0.303
	L18.098,78.658z M23.853,76.971c0.647,0.525,0.998,1.152,1.051,1.885c0.053,0.732-0.175,1.389-0.687,1.975
	c-0.437,0.498-0.967,0.811-1.591,0.934c-0.827,0.162-1.593-0.062-2.301-0.682c-0.71-0.619-1.047-1.338-1.017-2.156
	c0.025-0.646,0.265-1.23,0.719-1.752c0.511-0.584,1.135-0.896,1.874-0.939C22.641,76.193,23.291,76.439,23.853,76.971L23.853,76.971
	z M23.725,77.186c-0.361-0.316-0.795-0.373-1.306-0.172c-0.418,0.168-0.871,0.535-1.365,1.1c-0.585,0.672-0.902,1.271-0.945,1.799
	c-0.029,0.371,0.104,0.684,0.401,0.943c0.199,0.176,0.411,0.271,0.628,0.293c0.279,0.025,0.586-0.055,0.918-0.244
	s0.69-0.5,1.071-0.938c0.455-0.521,0.747-0.953,0.875-1.295c0.129-0.344,0.164-0.635,0.105-0.873
	C24.048,77.562,23.922,77.357,23.725,77.186L23.725,77.186z M25.752,82.129l-0.792,1.246c-0.151,0.238-0.233,0.398-0.243,0.477
	c-0.009,0.082,0.011,0.164,0.06,0.248c0.052,0.082,0.177,0.189,0.38,0.318l-0.072,0.113l-2.259-1.436l0.071-0.113
	c0.204,0.129,0.355,0.199,0.452,0.205c0.097,0.01,0.179-0.006,0.247-0.049c0.069-0.043,0.179-0.182,0.331-0.422l1.834-2.885
	c0.153-0.238,0.234-0.398,0.243-0.479c0.011-0.08-0.01-0.162-0.061-0.244c-0.051-0.084-0.177-0.191-0.379-0.32l0.073-0.113
	l2.051,1.307c0.535,0.34,0.901,0.623,1.103,0.855c0.201,0.232,0.315,0.496,0.345,0.795c0.029,0.301-0.041,0.582-0.21,0.85
	c-0.208,0.324-0.498,0.52-0.867,0.586c-0.235,0.041-0.511,0.006-0.823-0.1l0.107,2.17c0.017,0.281,0.04,0.467,0.07,0.551
	c0.045,0.123,0.127,0.225,0.241,0.307l-0.077,0.121l-1.39-0.885l-0.144-2.918L25.752,82.129z M27.127,79.969l-1.226,1.928
	l0.186,0.117c0.303,0.193,0.546,0.309,0.732,0.35c0.185,0.041,0.365,0.016,0.542-0.074c0.177-0.088,0.34-0.25,0.487-0.48
	c0.214-0.334,0.292-0.633,0.236-0.893c-0.057-0.262-0.259-0.502-0.607-0.725L27.127,79.969z M29.813,81.469l2.458,1.121
	l-0.057,0.123l-0.124-0.057c-0.185-0.086-0.322-0.125-0.41-0.115c-0.085,0.004-0.16,0.037-0.219,0.092
	c-0.062,0.055-0.155,0.221-0.279,0.494l-1.062,2.332c-0.193,0.426-0.29,0.723-0.289,0.889c0.002,0.168,0.055,0.33,0.161,0.488
	c0.106,0.16,0.272,0.289,0.495,0.391c0.259,0.119,0.504,0.162,0.738,0.127c0.233-0.033,0.441-0.133,0.624-0.295
	c0.182-0.162,0.39-0.496,0.621-1.002l0.883-1.941c0.099-0.215,0.146-0.381,0.142-0.49c-0.002-0.113-0.029-0.201-0.081-0.27
	c-0.082-0.102-0.217-0.195-0.41-0.285l0.057-0.121l1.646,0.75l-0.057,0.123l-0.099-0.047c-0.133-0.061-0.255-0.084-0.369-0.068
	c-0.113,0.012-0.215,0.064-0.305,0.156c-0.064,0.062-0.141,0.189-0.23,0.385l-0.822,1.809c-0.256,0.561-0.477,0.947-0.663,1.162
	c-0.188,0.217-0.471,0.361-0.851,0.441c-0.381,0.078-0.815,0.004-1.31-0.219c-0.411-0.189-0.705-0.387-0.878-0.602
	c-0.239-0.287-0.368-0.58-0.386-0.869c-0.021-0.293,0.06-0.637,0.24-1.031l1.062-2.334c0.125-0.275,0.188-0.453,0.188-0.535
	s-0.027-0.158-0.083-0.234c-0.057-0.072-0.187-0.154-0.389-0.244L29.813,81.469z M36.735,87.996l2.327-2.922l2.035,0.584
	l-0.036,0.129l-0.163-0.047c-0.148-0.043-0.274-0.049-0.378-0.021c-0.073,0.018-0.138,0.061-0.199,0.135
	c-0.044,0.053-0.104,0.205-0.177,0.459l-0.951,3.318c-0.075,0.258-0.108,0.426-0.1,0.498c0.011,0.07,0.047,0.145,0.118,0.217
	c0.07,0.074,0.175,0.131,0.315,0.17l0.163,0.045l-0.037,0.131l-2.619-0.752l0.037-0.131l0.162,0.049
	c0.148,0.041,0.274,0.049,0.378,0.023c0.071-0.018,0.138-0.064,0.199-0.137c0.043-0.053,0.102-0.207,0.175-0.461l1.069-3.725
	l-3.249,4.029l-0.088-0.027l-0.655-5.111l-1.015,3.541c-0.073,0.248-0.109,0.404-0.113,0.463c-0.004,0.133,0.037,0.256,0.122,0.365
	c0.086,0.109,0.243,0.197,0.475,0.264l-0.039,0.129l-1.722-0.496l0.036-0.129l0.055,0.016c0.11,0.035,0.219,0.047,0.327,0.035
	c0.108-0.012,0.195-0.043,0.263-0.092c0.069-0.051,0.133-0.131,0.193-0.24c0.013-0.025,0.051-0.152,0.117-0.381l0.913-3.18
	c0.075-0.26,0.109-0.426,0.099-0.498c-0.008-0.07-0.046-0.143-0.117-0.219c-0.072-0.072-0.177-0.129-0.318-0.168l-0.161-0.047
	l0.039-0.129l2.051,0.588L36.735,87.996z M47.82,86.189l-0.093,1.744l-0.157-0.012c-0.042-0.441-0.197-0.807-0.469-1.094
	c-0.272-0.285-0.576-0.443-0.916-0.469c-0.263-0.02-0.474,0.033-0.639,0.164c-0.162,0.127-0.251,0.281-0.264,0.465
	c-0.009,0.115,0.01,0.219,0.058,0.312c0.064,0.125,0.173,0.254,0.331,0.385c0.115,0.094,0.381,0.266,0.801,0.514
	c0.587,0.346,0.979,0.658,1.171,0.943c0.192,0.281,0.273,0.594,0.247,0.938c-0.033,0.436-0.232,0.797-0.595,1.086
	c-0.363,0.287-0.807,0.412-1.33,0.373c-0.165-0.012-0.32-0.041-0.463-0.086c-0.145-0.043-0.323-0.119-0.537-0.229
	c-0.119-0.062-0.219-0.094-0.298-0.102c-0.067-0.004-0.138,0.018-0.217,0.062c-0.08,0.045-0.146,0.119-0.201,0.223l-0.133-0.01
	l0.149-1.969l0.133,0.01c0.072,0.561,0.257,1.002,0.557,1.314c0.301,0.314,0.637,0.488,1.009,0.516
	c0.286,0.021,0.523-0.041,0.706-0.182c0.183-0.145,0.281-0.318,0.295-0.527c0.009-0.123-0.013-0.244-0.071-0.365
	c-0.057-0.119-0.146-0.236-0.272-0.352c-0.126-0.115-0.353-0.268-0.679-0.459c-0.457-0.27-0.783-0.494-0.978-0.674
	c-0.193-0.178-0.339-0.377-0.435-0.586c-0.097-0.211-0.135-0.438-0.117-0.684c0.031-0.416,0.21-0.758,0.539-1.025
	c0.327-0.271,0.723-0.389,1.188-0.354c0.168,0.014,0.331,0.045,0.487,0.1c0.119,0.039,0.261,0.105,0.427,0.203
	c0.167,0.096,0.285,0.145,0.354,0.15c0.067,0.006,0.122-0.01,0.162-0.047c0.042-0.039,0.086-0.135,0.131-0.287L47.82,86.189z
	 M51.264,89.908l-1.827,0.139l-0.189,0.525c-0.058,0.176-0.084,0.32-0.075,0.434c0.011,0.146,0.079,0.252,0.201,0.312
	c0.073,0.037,0.247,0.055,0.519,0.055l0.01,0.135l-1.732,0.131l-0.011-0.135c0.185-0.041,0.334-0.133,0.443-0.27
	c0.112-0.137,0.241-0.414,0.385-0.828l1.55-4.301l0.072-0.006l2.205,4.133c0.211,0.396,0.377,0.643,0.502,0.742
	c0.094,0.074,0.219,0.111,0.381,0.111l0.01,0.135l-2.523,0.189l-0.01-0.133l0.104-0.008c0.203-0.018,0.344-0.055,0.42-0.121
	c0.053-0.043,0.076-0.105,0.07-0.184c-0.002-0.049-0.014-0.096-0.033-0.145c-0.006-0.021-0.053-0.117-0.139-0.283L51.264,89.908z
	 M51.119,89.633l-0.914-1.719l-0.662,1.838L51.119,89.633z M55.459,88.506l0.252,1.457c0.049,0.277,0.096,0.451,0.145,0.514
	c0.045,0.068,0.115,0.113,0.209,0.143c0.096,0.027,0.26,0.023,0.494-0.02l0.023,0.133l-2.637,0.459l-0.023-0.133
	c0.238-0.041,0.398-0.092,0.475-0.15s0.125-0.129,0.148-0.203c0.023-0.078,0.008-0.256-0.039-0.533l-0.588-3.369
	c-0.047-0.279-0.094-0.451-0.143-0.516c-0.045-0.068-0.117-0.113-0.209-0.143c-0.096-0.027-0.26-0.021-0.496,0.021l-0.023-0.133
	l2.396-0.418c0.625-0.109,1.086-0.146,1.391-0.107c0.305,0.035,0.568,0.152,0.791,0.354c0.225,0.201,0.363,0.459,0.416,0.771
	c0.068,0.379-0.016,0.719-0.246,1.014c-0.148,0.189-0.373,0.35-0.674,0.482l1.541,1.533c0.201,0.195,0.342,0.314,0.42,0.359
	c0.117,0.057,0.248,0.08,0.387,0.062l0.025,0.143l-1.625,0.281l-2.072-2.061L55.459,88.506z M55.02,85.986l0.391,2.248l0.217-0.039
	c0.354-0.061,0.611-0.139,0.775-0.234c0.164-0.094,0.281-0.234,0.352-0.418c0.072-0.186,0.084-0.412,0.037-0.682
	c-0.068-0.393-0.211-0.666-0.428-0.82s-0.529-0.197-0.938-0.127L55.02,85.986z M62.047,87.732l-1.736,0.584l-0.053,0.557
	c-0.014,0.186-0.004,0.332,0.033,0.439c0.047,0.139,0.139,0.223,0.271,0.254c0.078,0.018,0.252-0.01,0.518-0.074l0.041,0.125
	l-1.648,0.555l-0.041-0.127c0.168-0.086,0.289-0.211,0.363-0.371c0.072-0.16,0.129-0.459,0.17-0.896l0.441-4.551l0.068-0.023
	l3.156,3.461c0.301,0.332,0.523,0.531,0.668,0.596c0.109,0.049,0.238,0.055,0.396,0.014l0.043,0.129l-2.398,0.807l-0.043-0.127
	l0.098-0.033c0.193-0.064,0.32-0.137,0.379-0.219c0.039-0.057,0.047-0.123,0.023-0.195c-0.016-0.047-0.039-0.09-0.068-0.133
	c-0.012-0.02-0.08-0.102-0.203-0.242L62.047,87.732z M61.838,87.504l-1.307-1.443l-0.191,1.945L61.838,87.504z M67.375,87.012
	l0.055,0.123l-2.482,1.121l-0.055-0.123l0.156-0.07c0.137-0.064,0.238-0.139,0.299-0.227c0.047-0.059,0.068-0.139,0.064-0.232
	c0-0.068-0.055-0.223-0.164-0.465l-1.42-3.143c-0.111-0.248-0.193-0.396-0.246-0.443c-0.055-0.051-0.133-0.082-0.23-0.092
	c-0.098-0.012-0.213,0.014-0.348,0.074l-0.158,0.07l-0.057-0.121l2.484-1.123l0.057,0.123l-0.158,0.07
	c-0.139,0.062-0.236,0.137-0.299,0.225c-0.043,0.061-0.066,0.139-0.064,0.236c0,0.066,0.055,0.223,0.164,0.463l1.42,3.145
	c0.111,0.246,0.195,0.393,0.248,0.441c0.057,0.049,0.131,0.08,0.23,0.092c0.098,0.012,0.215-0.016,0.346-0.074L67.375,87.012z
	 M67.385,81.531l1.055,1.852l0.092-0.051c0.287-0.164,0.447-0.375,0.475-0.629c0.025-0.254-0.043-0.568-0.207-0.941l0.131-0.074
	l1.355,2.383l-0.131,0.072c-0.174-0.244-0.354-0.424-0.531-0.541c-0.182-0.115-0.346-0.168-0.492-0.162
	c-0.148,0.008-0.328,0.074-0.547,0.197l0.73,1.281c0.143,0.248,0.238,0.395,0.291,0.439s0.119,0.066,0.197,0.068
	s0.186-0.033,0.312-0.105l0.271-0.156c0.426-0.24,0.709-0.535,0.854-0.875c0.146-0.342,0.162-0.746,0.043-1.211l0.123-0.07
	l0.619,1.561l-3.928,2.236l-0.066-0.115l0.152-0.086c0.131-0.076,0.223-0.16,0.275-0.252c0.041-0.066,0.055-0.145,0.041-0.24
	c-0.006-0.066-0.072-0.215-0.205-0.445l-1.707-3c-0.119-0.205-0.197-0.33-0.236-0.371c-0.064-0.066-0.143-0.105-0.227-0.111
	c-0.119-0.016-0.254,0.02-0.4,0.104l-0.15,0.084l-0.066-0.115l3.801-2.166l0.766,1.346l-0.129,0.074
	c-0.252-0.295-0.479-0.477-0.676-0.553c-0.199-0.076-0.424-0.09-0.674-0.035c-0.148,0.031-0.393,0.145-0.736,0.34L67.385,81.531z
	 M73.754,76.67l0.082,0.105c-0.129,0.141-0.201,0.324-0.211,0.553c-0.008,0.168,0.053,0.508,0.178,1.016l1.041,4.26l-0.1,0.078
	l-3.967-2.189c-0.48-0.268-0.777-0.412-0.887-0.436c-0.113-0.025-0.256,0.016-0.432,0.123l-0.082-0.107l1.973-1.533l0.082,0.107
	l-0.068,0.053c-0.178,0.139-0.283,0.258-0.312,0.352c-0.023,0.068-0.01,0.129,0.037,0.189c0.029,0.039,0.07,0.076,0.125,0.115
	c0.057,0.037,0.217,0.129,0.482,0.275L74.172,81l-0.609-2.459c-0.076-0.301-0.131-0.498-0.168-0.59
	c-0.037-0.094-0.076-0.168-0.117-0.221c-0.049-0.062-0.107-0.104-0.176-0.127c-0.07-0.02-0.145-0.02-0.229,0.004
	c-0.113,0.035-0.242,0.105-0.387,0.219l-0.082-0.105L73.754,76.67z M75.234,75.049c0.553-0.625,1.195-0.949,1.93-0.973
	c0.732-0.02,1.379,0.234,1.943,0.77c0.48,0.455,0.768,0.998,0.865,1.627c0.129,0.834-0.129,1.59-0.777,2.271
	c-0.646,0.684-1.381,0.992-2.197,0.926c-0.645-0.053-1.219-0.316-1.719-0.791c-0.562-0.535-0.85-1.17-0.859-1.912
	C74.408,76.227,74.682,75.588,75.234,75.049L75.234,75.049z M75.443,75.184c-0.33,0.35-0.404,0.781-0.223,1.301
	c0.148,0.422,0.494,0.891,1.039,1.408c0.646,0.615,1.234,0.953,1.76,1.02c0.367,0.045,0.686-0.074,0.957-0.361
	c0.184-0.191,0.289-0.396,0.32-0.615c0.037-0.277-0.033-0.588-0.207-0.926c-0.174-0.34-0.473-0.711-0.893-1.109
	c-0.502-0.479-0.922-0.787-1.256-0.928c-0.338-0.145-0.627-0.193-0.867-0.143C75.832,74.877,75.623,74.996,75.443,75.184
	L75.443,75.184z M78.668,71.654l1.666,1.336l0.062-0.082c0.209-0.26,0.279-0.514,0.211-0.76c-0.07-0.246-0.248-0.512-0.539-0.799
	l0.096-0.117l2.137,1.715l-0.096,0.117c-0.252-0.162-0.482-0.264-0.693-0.307c-0.211-0.041-0.383-0.031-0.516,0.029
	c-0.133,0.062-0.279,0.189-0.438,0.387l1.148,0.92c0.225,0.182,0.369,0.281,0.436,0.303c0.064,0.021,0.135,0.018,0.209-0.008
	c0.072-0.027,0.156-0.1,0.25-0.215l0.197-0.244c0.305-0.381,0.461-0.758,0.471-1.129c0.012-0.371-0.125-0.75-0.406-1.141l0.09-0.111
	l1.148,1.225l-2.828,3.523l-0.105-0.084l0.107-0.135c0.094-0.119,0.15-0.23,0.166-0.338c0.014-0.074-0.002-0.152-0.049-0.236
	c-0.031-0.059-0.15-0.174-0.357-0.338l-2.689-2.16c-0.186-0.15-0.305-0.236-0.355-0.262c-0.086-0.037-0.17-0.045-0.252-0.02
	c-0.117,0.029-0.23,0.109-0.336,0.244l-0.107,0.135l-0.105-0.084l2.738-3.414l1.209,0.971l-0.096,0.115
	c-0.342-0.178-0.619-0.266-0.83-0.266c-0.213,0.002-0.428,0.074-0.641,0.217c-0.125,0.084-0.312,0.279-0.561,0.586L78.668,71.654z
	 M80.832,67.941l4.096-0.623l-1.951-1.119c-0.277-0.158-0.482-0.225-0.625-0.201c-0.193,0.033-0.359,0.178-0.498,0.432l-0.117-0.066
	l0.859-1.502l0.117,0.068c-0.086,0.205-0.127,0.354-0.127,0.441c0.004,0.09,0.037,0.178,0.105,0.264
	c0.068,0.088,0.209,0.193,0.428,0.318l3.781,2.166l-0.064,0.113l-5.545,0.898l2.896,1.658c0.264,0.152,0.475,0.193,0.637,0.127
	c0.16-0.066,0.285-0.18,0.375-0.332l0.061-0.109l0.115,0.068l-0.924,1.617l-0.117-0.068c0.141-0.252,0.189-0.455,0.145-0.613
	c-0.047-0.156-0.188-0.303-0.432-0.441l-3.213-1.842l-0.172,0.027c-0.18,0.027-0.309,0.064-0.389,0.115
	c-0.082,0.051-0.164,0.145-0.248,0.281l-0.115-0.066L80.832,67.941z M83.631,61.906l1.641,0.596l-0.059,0.148
	c-0.434-0.088-0.826-0.047-1.18,0.131s-0.594,0.422-0.717,0.738c-0.096,0.244-0.105,0.465-0.031,0.658
	c0.076,0.195,0.197,0.324,0.367,0.391c0.107,0.041,0.215,0.053,0.318,0.035c0.139-0.025,0.293-0.092,0.463-0.205
	c0.123-0.082,0.365-0.287,0.725-0.615c0.502-0.463,0.918-0.744,1.246-0.848c0.324-0.1,0.646-0.088,0.969,0.037
	c0.406,0.158,0.695,0.455,0.865,0.887c0.168,0.432,0.158,0.893-0.031,1.381c-0.061,0.154-0.133,0.293-0.219,0.418
	c-0.082,0.125-0.209,0.275-0.375,0.447c-0.094,0.096-0.152,0.182-0.182,0.256c-0.025,0.062-0.027,0.137-0.006,0.227
	c0.023,0.088,0.074,0.174,0.156,0.256l-0.049,0.125l-1.84-0.717l0.049-0.125c0.557,0.096,1.031,0.045,1.42-0.15
	s0.65-0.465,0.787-0.814c0.104-0.27,0.113-0.512,0.029-0.729c-0.082-0.217-0.221-0.363-0.416-0.438
	c-0.115-0.045-0.238-0.059-0.371-0.037c-0.131,0.018-0.268,0.07-0.416,0.158c-0.145,0.088-0.357,0.26-0.637,0.516
	c-0.389,0.357-0.699,0.605-0.93,0.738c-0.229,0.133-0.457,0.215-0.686,0.246c-0.232,0.029-0.461,0-0.686-0.088
	c-0.389-0.152-0.668-0.424-0.828-0.816c-0.164-0.389-0.16-0.803,0.01-1.236c0.062-0.16,0.141-0.305,0.236-0.438
	c0.072-0.104,0.178-0.219,0.318-0.352c0.141-0.131,0.223-0.23,0.248-0.293c0.023-0.064,0.025-0.121,0-0.17
	c-0.023-0.051-0.102-0.121-0.234-0.207L83.631,61.906z M89.648,60.436l0.125,0.043l-0.861,2.584l-0.127-0.043l0.055-0.164
	c0.047-0.143,0.061-0.268,0.037-0.371c-0.014-0.076-0.055-0.145-0.129-0.205c-0.049-0.047-0.199-0.113-0.451-0.197l-3.271-1.092
	c-0.258-0.086-0.422-0.125-0.494-0.119s-0.146,0.039-0.221,0.105c-0.076,0.066-0.135,0.166-0.184,0.307l-0.055,0.164l-0.127-0.043
	l0.863-2.586l0.127,0.045l-0.055,0.162c-0.047,0.143-0.061,0.266-0.039,0.371c0.016,0.074,0.059,0.143,0.129,0.207
	c0.051,0.047,0.201,0.111,0.453,0.195l3.271,1.094c0.256,0.086,0.422,0.123,0.494,0.119c0.074-0.008,0.146-0.043,0.221-0.109
	c0.078-0.062,0.139-0.166,0.184-0.305L89.648,60.436z M85.465,55.486l1.711,0.35l-0.035,0.156c-0.443-0.025-0.826,0.074-1.152,0.301
	c-0.324,0.227-0.523,0.504-0.6,0.836c-0.059,0.256-0.037,0.475,0.066,0.654c0.102,0.182,0.242,0.293,0.418,0.332
	c0.113,0.027,0.221,0.023,0.32-0.01c0.133-0.045,0.277-0.135,0.428-0.27c0.111-0.1,0.32-0.338,0.629-0.717
	c0.43-0.529,0.799-0.869,1.107-1.018c0.307-0.146,0.629-0.182,0.965-0.104c0.426,0.096,0.752,0.348,0.984,0.75
	c0.23,0.402,0.287,0.861,0.17,1.371c-0.037,0.162-0.088,0.309-0.152,0.443c-0.066,0.137-0.168,0.305-0.309,0.5
	c-0.078,0.107-0.125,0.201-0.143,0.277c-0.016,0.066-0.006,0.141,0.029,0.227c0.031,0.086,0.096,0.16,0.189,0.229l-0.029,0.131
	l-1.924-0.441l0.029-0.129c0.566,0.014,1.027-0.105,1.383-0.355c0.357-0.25,0.576-0.557,0.66-0.92
	c0.062-0.281,0.037-0.523-0.076-0.725c-0.113-0.203-0.271-0.326-0.477-0.375c-0.119-0.027-0.244-0.021-0.371,0.018
	c-0.129,0.039-0.256,0.111-0.389,0.217c-0.133,0.107-0.316,0.309-0.555,0.602c-0.334,0.414-0.604,0.701-0.812,0.869
	c-0.207,0.164-0.422,0.277-0.645,0.342c-0.223,0.062-0.455,0.066-0.691,0.012c-0.404-0.092-0.719-0.32-0.936-0.686
	c-0.217-0.361-0.275-0.77-0.17-1.225c0.035-0.166,0.092-0.32,0.17-0.467c0.057-0.111,0.145-0.242,0.264-0.395
	c0.119-0.148,0.186-0.26,0.203-0.326c0.014-0.066,0.006-0.123-0.023-0.168c-0.033-0.045-0.121-0.104-0.266-0.172L85.465,55.486z
	 M85.465,55.486"/>
<g>
</g>
<g>
</g>
<g>
</g>
<g>
</g>
<g>
</g>
<g>
</g>
<g>
</g>
<g>
</g>
<g>
</g>
<g>
</g>
<g>
</g>
<g>
</g>
<g>
</g>
<g>
</g>
<g>
</g>
</svg>
